Oxygen.ufo
<glyph name="dollar" format="1">
  <advance width="1227"/>
  <unicode hex="0024"/>
  <outline>
    <contour>
      <point x="580" y="886" type="line"/>
      <point x="498" y="906" type="line"/>
      <point x="354" y="941"/>
      <point x="276" y="1004"/>
      <point x="276" y="1121" type="curve" smooth="yes"/>
      <point x="276" y="1279"/>
      <point x="380" y="1358"/>
      <point x="580" y="1370" type="curve"/>
    </contour>
    <contour>
      <point x="675" y="131" type="line"/>
      <point x="675" y="688" type="line"/>
      <point x="727" y="675" type="line"/>
      <point x="917" y="627"/>
      <point x="966" y="546"/>
      <point x="966" y="426" type="curve" smooth="yes"/>
      <point x="966" y="236"/>
      <point x="866" y="142"/>
      <point x="678" y="131" type="curve"/>
    </contour>
    <contour>
      <point x="675" y="-195" type="line"/>
      <point x="675" y="-22" type="line"/>
      <point x="956" y="-8"/>
      <point x="1145" y="136"/>
      <point x="1145" y="432" type="curve" smooth="yes"/>
      <point x="1145" y="676"/>
      <point x="1003" y="784"/>
      <point x="779" y="838" type="curve" smooth="yes"/>
      <point x="675" y="863" type="line"/>
      <point x="675" y="1371" type="line"/>
      <point x="824" y="1364"/>
      <point x="966" y="1318"/>
      <point x="1039" y="1277" type="curve"/>
      <point x="1089" y="1418" type="line"/>
      <point x="993" y="1478"/>
      <point x="844" y="1520"/>
      <point x="675" y="1525" type="curve"/>
      <point x="675" y="1693" type="line"/>
      <point x="580" y="1693" type="line"/>
      <point x="580" y="1523" type="line"/>
      <point x="287" y="1508"/>
      <point x="96" y="1381"/>
      <point x="96" y="1109" type="curve" smooth="yes"/>
      <point x="96" y="911"/>
      <point x="227" y="801"/>
      <point x="433" y="749" type="curve" smooth="yes"/>
      <point x="580" y="712" type="line"/>
      <point x="580" y="132" type="line"/>
      <point x="414" y="141"/>
      <point x="266" y="185"/>
      <point x="146" y="244" type="curve"/>
      <point x="94" y="100" type="line"/>
      <point x="179" y="48"/>
      <point x="346" y="-14"/>
      <point x="580" y="-22" type="curve"/>
      <point x="580" y="-195" type="line"/>
    </contour>
  </outline>
</glyph>
<glyph name="plus" format="1">
  <advance width="1081"/>
  <unicode hex="002B"/>
  <outline>
    <contour>
      <point x="101" y="646" type="line"/>
      <point x="101" y="512" type="line"/>
      <point x="484" y="512" type="line"/>
      <point x="484" y="80" type="line"/>
      <point x="619" y="80" type="line"/>
      <point x="619" y="512" type="line"/>
      <point x="989" y="512" type="line"/>
      <point x="989" y="646" type="line"/>
      <point x="621" y="646" type="line"/>
      <point x="621" y="1065" type="line"/>
      <point x="487" y="1065" type="line"/>
      <point x="487" y="646" type="line"/>
    </contour>
  </outline>
</glyph>
<glyph name="slash" format="1">
  <advance width="952"/>
  <unicode hex="002F"/>
  <outline>
    <contour>
      <point x="194" y="-218" type="line"/>
      <point x="50" y="-218" type="line"/>
      <point x="726" y="1466" type="line"/>
      <point x="872" y="1466" type="line"/>
    </contour>
  </outline>
</glyph>
<glyph name="one" format="1">
  <advance width="626"/>
  <unicode hex="0031"/>
  <outline>
    <contour>
      <point x="302" y="1496" type="curve"/>
      <point x="461" y="1496" type="line"/>
      <point x="461" y="0" type="line"/>
      <point x="284" y="0" type="line"/>
      <point x="284" y="1311" type="line"/>
      <point x="205" y="1259"/>
      <point x="109" y="1221"/>
      <point x="37" y="1198" type="curve"/>
      <point x="37" y="1365" type="line"/>
      <point x="125" y="1404"/>
      <point x="223" y="1440"/>
    </contour>
  </outline>
</glyph>
<glyph name="five" format="1">
  <advance width="1177"/>
  <unicode hex="0035"/>
  <outline>
    <contour>
      <point x="1004" y="1496" type="line"/>
      <point x="987" y="1332" type="line"/>
      <point x="379" y="1332" type="line"/>
      <point x="374" y="1187"/>
      <point x="368" y="1006"/>
      <point x="364" y="861" type="curve"/>
      <point x="444" y="912"/>
      <point x="525" y="933"/>
      <point x="609" y="933" type="curve" smooth="yes"/>
      <point x="912" y="933"/>
      <point x="1064" y="731"/>
      <point x="1064" y="477" type="curve" smooth="yes"/>
      <point x="1064" y="178"/>
      <point x="860" y="-23"/>
      <point x="523" y="-23" type="curve" smooth="yes"/>
      <point x="348" y="-23"/>
      <point x="210" y="33"/>
      <point x="121" y="114" type="curve"/>
      <point x="186" y="255" type="line"/>
      <point x="250" y="205"/>
      <point x="363" y="139"/>
      <point x="529" y="139" type="curve" smooth="yes"/>
      <point x="751" y="139"/>
      <point x="883" y="279"/>
      <point x="883" y="475" type="curve" smooth="yes"/>
      <point x="883" y="648"/>
      <point x="778" y="776"/>
      <point x="575" y="776" type="curve" smooth="yes"/>
      <point x="480" y="776"/>
      <point x="400" y="746"/>
      <point x="337" y="677" type="curve"/>
      <point x="198" y="696" type="line"/>
      <point x="237" y="1496" type="line"/>
    </contour>
  </outline>
</glyph>
<glyph name="seven" format="1">
  <advance width="1052"/>
  <unicode hex="0037"/>
  <outline>
    <contour>
      <point x="261" y="0" type="line"/>
      <point x="775" y="1341" type="line"/>
      <point x="100" y="1341" type="line"/>
      <point x="111" y="1496" type="line"/>
      <point x="978" y="1496" type="line"/>
      <point x="978" y="1360" type="line"/>
      <point x="443" y="0" type="line"/>
    </contour>
  </outline>
</glyph>
<glyph name="A" format="1">
  <advance width="1309"/>
  <unicode hex="0041"/>
  <outline>
    <contour>
      <point x="420" y="611" type="line"/>
      <point x="899" y="611" type="line"/>
      <point x="671" y="1324" type="line"/>
    </contour>
    <contour>
      <point x="1123" y="0" type="line"/>
      <point x="958" y="473" type="line"/>
      <point x="365" y="473" type="line"/>
      <point x="187" y="0" type="line"/>
      <point x="6" y="0" type="line"/>
      <point x="564" y="1496" type="line"/>
      <point x="776" y="1496" type="line"/>
      <point x="1303" y="0" type="line"/>
    </contour>
    <contour>
      <point x="655" y="1489" type="move"/>
    </contour>
    <contour>
      <point x="1172" y="10" type="move"/>
    </contour>
    <contour>
      <point x="655" y="1489" type="move"/>
    </contour>
    <contour>
      <point x="1172" y="10" type="move"/>
    </contour>
    <contour>
      <point x="655" y="1489" type="move"/>
    </contour>
    <contour>
      <point x="1188" y="10" type="move"/>
    </contour>
    <contour>
      <point x="655" y="1489" type="move" name="top"/>
    </contour>
    <contour>
      <point x="1175" y="10" type="move" name="ogonek"/>
    </contour>
  </outline>
</glyph>
<glyph name="B" format="1">
  <advance width="1286"/>
  <unicode hex="0042"/>
  <outline>
    <contour>
      <point x="324" y="716" type="line"/>
      <point x="324" y="139" type="line"/>
      <point x="637" y="139" type="line" smooth="yes"/>
      <point x="897" y="139"/>
      <point x="1033" y="227"/>
      <point x="1033" y="428" type="curve" smooth="yes"/>
      <point x="1033" y="616"/>
      <point x="912" y="716"/>
      <point x="688" y="716" type="curve" smooth="yes"/>
    </contour>
    <contour>
      <point x="324" y="1352" type="line"/>
      <point x="324" y="850" type="line"/>
      <point x="678" y="850" type="line" smooth="yes"/>
      <point x="817" y="850"/>
      <point x="966" y="885"/>
      <point x="966" y="1096" type="curve" smooth="yes"/>
      <point x="966" y="1321"/>
      <point x="800" y="1352"/>
      <point x="557" y="1352" type="curve" smooth="yes"/>
    </contour>
    <contour>
      <point x="147" y="0" type="line"/>
      <point x="147" y="1496" type="line"/>
      <point x="583" y="1496" type="line" smooth="yes"/>
      <point x="944" y="1496"/>
      <point x="1151" y="1395"/>
      <point x="1151" y="1131" type="curve" smooth="yes"/>
      <point x="1151" y="988"/>
      <point x="1090" y="851"/>
      <point x="939" y="801" type="curve"/>
      <point x="1127" y="761"/>
      <point x="1213" y="585"/>
      <point x="1213" y="426" type="curve" smooth="yes"/>
      <point x="1213" y="163"/>
      <point x="1059" y="0"/>
      <point x="670" y="0" type="curve" smooth="yes"/>
    </contour>
  </outline>
</glyph>
<glyph name="E" format="1">
  <advance width="1148"/>
  <unicode hex="0045"/>
  <outline>
    <contour>
      <point x="987" y="845" type="line"/>
      <point x="987" y="692" type="line"/>
      <point x="324" y="692" type="line"/>
      <point x="324" y="155" type="line"/>
      <point x="1058" y="155" type="line"/>
      <point x="1043" y="0" type="line"/>
      <point x="147" y="0" type="line"/>
      <point x="147" y="1496" type="line"/>
      <point x="1029" y="1496" type="line"/>
      <point x="1015" y="1341" type="line"/>
      <point x="324" y="1341" type="line"/>
      <point x="324" y="845" type="line"/>
    </contour>
    <contour>
      <point x="570" y="1489" type="line"/>
    </contour>
    <contour>
      <point x="570" y="0" type="line"/>
    </contour>
    <contour>
      <point x="1026" y="10" type="line"/>
    </contour>
    <contour>
      <point x="570" y="1489" type="line"/>
    </contour>
    <contour>
      <point x="570" y="0" type="line"/>
    </contour>
    <contour>
      <point x="1026" y="10" type="line"/>
    </contour>
    <contour>
      <point x="570" y="1489" type="line" smooth="yes"/>
    </contour>
    <contour>
      <point x="570" y="0" type="line" smooth="yes"/>
    </contour>
    <contour>
      <point x="1026" y="10" type="line" smooth="yes"/>
    </contour>
    <contour>
      <point x="570" y="1489" type="move" name="top"/>
    </contour>
    <contour>
      <point x="570" y="0" type="move" name="bottom"/>
    </contour>
    <contour>
      <point x="1026" y="10" type="move" name="ogonek"/>
    </contour>
  </outline>
</glyph>
<glyph name="G" format="1">
  <advance width="1432"/>
  <unicode hex="0047"/>
  <outline>
    <contour>
      <point x="811" y="-23" type="curve" smooth="yes"/>
      <point x="1002" y="-23"/>
      <point x="1142" y="15"/>
      <point x="1321" y="123" type="curve"/>
      <point x="1321" y="764" type="line"/>
      <point x="809" y="764" type="line"/>
      <point x="797" y="615" type="line"/>
      <point x="1167" y="615" type="line"/>
      <point x="1167" y="220" type="line"/>
      <point x="1101" y="179"/>
      <point x="955" y="129"/>
      <point x="830" y="129" type="curve" smooth="yes"/>
      <point x="451" y="129"/>
      <point x="290" y="413"/>
      <point x="290" y="745" type="curve" smooth="yes"/>
      <point x="290" y="1074"/>
      <point x="451" y="1373"/>
      <point x="830" y="1373" type="curve" smooth="yes"/>
      <point x="976" y="1373"/>
      <point x="1129" y="1309"/>
      <point x="1210" y="1243" type="curve"/>
      <point x="1275" y="1380" type="line"/>
      <point x="1161" y="1472"/>
      <point x="1008" y="1525"/>
      <point x="816" y="1525" type="curve"/>
      <point x="334" y="1525"/>
      <point x="101" y="1164"/>
      <point x="101" y="745" type="curve" smooth="yes"/>
      <point x="101" y="335"/>
      <point x="338" y="-23"/>
    </contour>
    <contour>
      <point x="716.0" y="1489.0" type="move" name="top"/>
    </contour>
    <contour>
      <point x="716.0" y="0.0" type="move" name="bottom"/>
    </contour>
  </outline>
</glyph>
<glyph name="L" format="1">
  <advance width="980"/>
  <unicode hex="004C"/>
  <outline>
    <contour>
      <point x="148" y="1496" type="line"/>
      <point x="325" y="1496" type="line"/>
      <point x="325" y="155" type="line"/>
      <point x="982" y="155" type="line"/>
      <point x="970" y="0" type="line"/>
      <point x="148" y="0" type="line"/>
    </contour>
    <contour>
      <point x="480" y="1489" type="line"/>
    </contour>
    <contour>
      <point x="480" y="0" type="line"/>
    </contour>
    <contour>
      <point x="480" y="1489" type="line"/>
    </contour>
    <contour>
      <point x="480" y="0" type="line"/>
    </contour>
    <contour>
      <point x="480" y="1489" type="line" smooth="yes"/>
    </contour>
    <contour>
      <point x="480" y="0" type="line" smooth="yes"/>
    </contour>
    <contour>
      <point x="480" y="1489" type="move" name="top"/>
    </contour>
    <contour>
      <point x="480" y="0" type="move" name="bottom"/>
    </contour>
  </outline>
</glyph>
<glyph name="N" format="1">
  <advance width="1488"/>
  <unicode hex="004E"/>
  <outline>
    <contour>
      <point x="1341" y="0" type="line"/>
      <point x="1144" y="0" type="line"/>
      <point x="314" y="1239" type="line"/>
      <point x="314" y="0" type="line"/>
      <point x="147" y="0" type="line"/>
      <point x="147" y="1496" type="line"/>
      <point x="341" y="1496" type="line"/>
      <point x="1178" y="253" type="line"/>
      <point x="1178" y="1496" type="line"/>
      <point x="1341" y="1496" type="line"/>
    </contour>
    <contour>
      <point x="744" y="1489" type="move"/>
    </contour>
    <contour>
      <point x="744" y="0" type="move"/>
    </contour>
    <contour>
      <point x="744" y="1489" type="move"/>
    </contour>
    <contour>
      <point x="744" y="0" type="move"/>
    </contour>
    <contour>
      <point x="744" y="1489" type="move"/>
    </contour>
    <contour>
      <point x="744" y="0" type="move"/>
    </contour>
    <contour>
      <point x="744" y="1489" type="move" name="top"/>
    </contour>
    <contour>
      <point x="744" y="0" type="move" name="bottom"/>
    </contour>
  </outline>
</glyph>
<glyph name="P" format="1">
  <advance width="1159"/>
  <unicode hex="0050"/>
  <outline>
    <contour>
      <point x="584" y="778" type="curve" smooth="yes"/>
      <point x="923" y="778"/>
      <point x="950" y="941"/>
      <point x="950" y="1090" type="curve" smooth="yes"/>
      <point x="950" y="1267"/>
      <point x="817" y="1337"/>
      <point x="632" y="1337" type="curve" smooth="yes"/>
      <point x="323" y="1337" type="line"/>
      <point x="323" y="780" type="line"/>
      <point x="323" y="780"/>
      <point x="516" y="778"/>
    </contour>
    <contour>
      <point x="323" y="0" type="line"/>
      <point x="146" y="0" type="line"/>
      <point x="146" y="1496" type="line"/>
      <point x="628" y="1496" type="line" smooth="yes"/>
      <point x="912" y="1496"/>
      <point x="1130" y="1382"/>
      <point x="1130" y="1093" type="curve" smooth="yes"/>
      <point x="1130" y="815"/>
      <point x="1010" y="625"/>
      <point x="567" y="625" type="curve" smooth="yes"/>
      <point x="505" y="625"/>
      <point x="399" y="631"/>
      <point x="323" y="638" type="curve"/>
    </contour>
  </outline>
</glyph>
<glyph name="Q" format="1">
  <advance width="1657"/>
  <unicode hex="0051"/>
  <outline>
    <contour>
      <point x="1267" y="-470" type="line"/>
      <point x="1228" y="-431"/>
      <point x="1027.0" y="-192.0"/>
      <point x="942.0" y="-17.0" type="curve"/>
      <point x="945.0" y="-16.0002352941"/>
      <point x="1071.93333333" y="49.0233333333"/>
      <point x="1111.0" y="26.0" type="curve"/>
      <point x="1177.0" y="-120.0"/>
      <point x="1354" y="-322"/>
      <point x="1385" y="-350" type="curve"/>
    </contour>
    <component base="O"/>
  </outline>
</glyph>
<glyph name="Q" format="1">
  <advance width="1657"/>
  <unicode hex="0051"/>
  <outline>
    <component base="O"/>
    <contour>
      <point x="1267" y="-470" type="line"/>
      <point x="1228" y="-431"/>
      <point x="1027" y="-192"/>
      <point x="942" y="-17" type="curve"/>
      <point x="945" y="-16"/>
      <point x="1072" y="49"/>
      <point x="1111" y="26" type="curve"/>
      <point x="1177" y="-120"/>
      <point x="1354" y="-322"/>
      <point x="1385" y="-350" type="curve"/>
    </contour>
  </outline>
</glyph>
<glyph name="R" format="1">
  <advance width="1339"/>
  <unicode hex="0052"/>
  <outline>
    <contour>
      <point x="324" y="1341" type="line"/>
      <point x="324" y="841" type="line"/>
      <point x="679" y="837" type="line" smooth="yes"/>
      <point x="950" y="834"/>
      <point x="1028" y="923"/>
      <point x="1028" y="1102" type="curve" smooth="yes"/>
      <point x="1028" y="1258"/>
      <point x="949" y="1341"/>
      <point x="720" y="1341" type="curve" smooth="yes"/>
    </contour>
    <contour>
      <point x="1272" y="0" type="line"/>
      <point x="1072" y="0" type="line"/>
      <point x="868" y="464" type="line" smooth="yes"/>
      <point x="829" y="552"/>
      <point x="793" y="638"/>
      <point x="762" y="689" type="curve"/>
      <point x="733" y="687"/>
      <point x="623" y="684"/>
      <point x="589" y="684" type="curve" smooth="yes"/>
      <point x="570" y="684"/>
      <point x="324" y="692"/>
      <point x="324" y="692" type="curve"/>
      <point x="324" y="0" type="line"/>
      <point x="147" y="0" type="line"/>
      <point x="147" y="1496" type="line"/>
      <point x="620" y="1496" type="line" smooth="yes"/>
      <point x="976" y="1496"/>
      <point x="1202" y="1442"/>
      <point x="1202" y="1105" type="curve" smooth="yes"/>
      <point x="1202" y="919.973"/>
      <point x="1113" y="776"/>
      <point x="920" y="724" type="curve" smooth="yes"/>
      <point x="917" y="723"/>
      <point x="995.228" y="598.497"/>
      <point x="1030" y="522" type="curve" smooth="yes"/>
    </contour>
    <contour>
      <point x="642" y="1489" type="line"/>
    </contour>
    <contour>
      <point x="642" y="0" type="line"/>
    </contour>
    <contour>
      <point x="642" y="1489" type="line"/>
    </contour>
    <contour>
      <point x="642" y="0" type="line"/>
    </contour>
    <contour>
      <point x="642" y="1489" type="line" smooth="yes"/>
    </contour>
    <contour>
      <point x="642" y="0" type="line" smooth="yes"/>
    </contour>
    <contour>
      <point x="642" y="1489" type="move" name="top"/>
    </contour>
    <contour>
      <point x="642" y="0" type="move" name="bottom"/>
    </contour>
  </outline>
</glyph>
<glyph name="S" format="1">
  <advance width="1227"/>
  <unicode hex="0053"/>
  <outline>
    <contour>
      <point x="450" y="130"/>
      <point x="280" y="178"/>
      <point x="146" y="244" type="curve"/>
      <point x="94" y="100" type="line"/>
      <point x="185" y="44"/>
      <point x="370" y="-23"/>
      <point x="630" y="-23" type="curve" smooth="yes"/>
      <point x="936" y="-23"/>
      <point x="1145" y="121"/>
      <point x="1145" y="432" type="curve" smooth="yes"/>
      <point x="1145" y="676"/>
      <point x="1003" y="784"/>
      <point x="779" y="838" type="curve" smooth="yes"/>
      <point x="498" y="906" type="line" smooth="yes"/>
      <point x="354" y="941"/>
      <point x="276" y="1004"/>
      <point x="276" y="1121" type="curve" smooth="yes"/>
      <point x="276" y="1294"/>
      <point x="400" y="1372"/>
      <point x="638" y="1372" type="curve" smooth="yes"/>
      <point x="800" y="1372"/>
      <point x="960" y="1321"/>
      <point x="1039" y="1277" type="curve"/>
      <point x="1089" y="1418" type="line"/>
      <point x="987" y="1482"/>
      <point x="825" y="1525"/>
      <point x="642" y="1525" type="curve" smooth="yes"/>
      <point x="314" y="1525"/>
      <point x="96" y="1400"/>
      <point x="96" y="1109" type="curve" smooth="yes"/>
      <point x="96" y="911"/>
      <point x="227" y="801"/>
      <point x="433" y="749" type="curve" smooth="yes"/>
      <point x="727" y="675" type="line" smooth="yes"/>
      <point x="917" y="627"/>
      <point x="966" y="546"/>
      <point x="966" y="426" type="curve" smooth="yes"/>
      <point x="966" y="224"/>
      <point x="853" y="130"/>
      <point x="641" y="130" type="curve" smooth="yes"/>
    </contour>
    <contour>
      <point x="615" y="1489" type="move" name="top"/>
    </contour>
    <contour>
      <point x="615" y="0" type="move" name="bottom"/>
    </contour>
  </outline>
</glyph>
<glyph name="U" format="1">
  <advance width="1386"/>
  <unicode hex="0055"/>
  <outline>
    <contour>
      <point x="688" y="-23" type="curve" smooth="yes"/>
      <point x="253" y="-23"/>
      <point x="127" y="179"/>
      <point x="127" y="500" type="curve" smooth="yes"/>
      <point x="127" y="1496" type="line"/>
      <point x="304" y="1496" type="line"/>
      <point x="304" y="506" type="line" smooth="yes"/>
      <point x="304" y="214"/>
      <point x="418" y="125"/>
      <point x="688" y="125" type="curve" smooth="yes"/>
      <point x="957" y="125"/>
      <point x="1073" y="214"/>
      <point x="1073" y="506" type="curve" smooth="yes"/>
      <point x="1073" y="1496" type="line"/>
      <point x="1250" y="1496" type="line"/>
      <point x="1250" y="500" type="line" smooth="yes"/>
      <point x="1250" y="179"/>
      <point x="1124" y="-23"/>
    </contour>
    <contour>
      <point x="693" y="1489" type="line"/>
    </contour>
    <contour>
      <point x="1247" y="10" type="line"/>
    </contour>
    <contour>
      <point x="693" y="1489" type="line"/>
    </contour>
    <contour>
      <point x="1247" y="10" type="line"/>
    </contour>
    <contour>
      <point x="693" y="1489" type="line" smooth="yes"/>
    </contour>
    <contour>
      <point x="1247" y="10" type="line" smooth="yes"/>
    </contour>
    <contour>
      <point x="693" y="1489" type="move" name="top"/>
    </contour>
    <contour>
      <point x="1247" y="10" type="move" name="ogonek"/>
    </contour>
  </outline>
</glyph>
<glyph name="bracketleft" format="1">
  <advance width="678"/>
  <unicode hex="005B"/>
  <outline>
    <contour>
      <point x="570" y="-139" type="line"/>
      <point x="570" y="-261" type="line"/>
      <point x="121" y="-261" type="line"/>
      <point x="121" y="1505" type="line"/>
      <point x="570" y="1505" type="line"/>
      <point x="570" y="1381" type="line"/>
      <point x="299" y="1381" type="line"/>
      <point x="299" y="-139" type="line"/>
    </contour>
  </outline>
</glyph>
<glyph name="bracketright" format="1">
  <advance width="678"/>
  <unicode hex="005D"/>
  <outline>
    <contour>
      <point x="109" y="-139" type="line"/>
      <point x="380" y="-139" type="line"/>
      <point x="380" y="1381" type="line"/>
      <point x="109" y="1381" type="line"/>
      <point x="109" y="1505" type="line"/>
      <point x="558" y="1505" type="line"/>
      <point x="558" y="-261" type="line"/>
      <point x="109" y="-261" type="line"/>
    </contour>
  </outline>
</glyph>
<glyph name="a" format="1">
  <advance width="1052"/>
  <unicode hex="0061"/>
  <outline>
    <contour>
      <point x="441" y="107" type="curve" smooth="yes"/>
      <point x="545" y="107"/>
      <point x="690" y="170"/>
      <point x="761" y="269" type="curve"/>
      <point x="761" y="539" type="line" smooth="yes"/>
      <point x="761" y="538"/>
      <point x="664" y="525"/>
      <point x="661" y="525" type="curve" smooth="yes"/>
      <point x="349" y="484"/>
      <point x="258" y="434"/>
      <point x="258" y="280" type="curve" smooth="yes"/>
      <point x="258" y="157"/>
      <point x="336" y="107"/>
    </contour>
    <contour>
      <point x="766" y="120" type="curve"/>
      <point x="670" y="12"/>
      <point x="538" y="-25"/>
      <point x="423" y="-25" type="curve" smooth="yes"/>
      <point x="242" y="-25"/>
      <point x="90" y="70"/>
      <point x="90" y="275" type="curve" smooth="yes"/>
      <point x="90" y="563"/>
      <point x="368" y="602"/>
      <point x="651" y="643" type="curve" smooth="yes"/>
      <point x="652" y="643"/>
      <point x="761" y="656"/>
      <point x="761" y="656" type="curve"/>
      <point x="761" y="781" type="line" smooth="yes"/>
      <point x="761" y="914"/>
      <point x="696" y="983"/>
      <point x="545" y="983" type="curve" smooth="yes"/>
      <point x="424" y="983"/>
      <point x="292" y="953"/>
      <point x="202" y="909" type="curve" smooth="yes"/>
      <point x="201" y="909"/>
      <point x="156" y="1041"/>
      <point x="156" y="1041" type="curve"/>
      <point x="239" y="1087"/>
      <point x="386" y="1124"/>
      <point x="541" y="1124" type="curve" smooth="yes"/>
      <point x="758" y="1124"/>
      <point x="928" y="1051"/>
      <point x="928" y="806" type="curve" smooth="yes"/>
      <point x="928" y="0" type="line"/>
      <point x="791" y="0" type="line"/>
      <point x="790" y="1"/>
      <point x="766" y="120"/>
    </contour>
    <contour>
      <point x="540" y="1098" type="line"/>
    </contour>
    <contour>
      <point x="540" y="1098" type="line"/>
    </contour>
    <contour>
      <point x="524" y="1098" type="move" name="top"/>
    </contour>
    <contour>
      <point x="935" y="10" type="move" name="ogonek"/>
    </contour>
  </outline>
</glyph>
<glyph name="b" format="1">
  <advance width="1171"/>
  <unicode hex="0062"/>
  <outline>
    <contour>
      <point x="628" y="-25" type="curve" smooth="yes"/>
      <point x="940" y="-25"/>
      <point x="1094" y="244"/>
      <point x="1094" y="562" type="curve" smooth="yes"/>
      <point x="1094" y="854"/>
      <point x="937" y="1124"/>
      <point x="632" y="1124" type="curve" smooth="yes"/>
      <point x="513" y="1124"/>
      <point x="372" y="1071"/>
      <point x="287" y="930" type="curve"/>
      <point x="287" y="1510" type="line"/>
      <point x="119" y="1490" type="line"/>
      <point x="119" y="0" type="line"/>
      <point x="285" y="0" type="line"/>
      <point x="285" y="163" type="line"/>
      <point x="352" y="45"/>
      <point x="481" y="-25"/>
    </contour>
    <contour>
      <point x="616" y="113" type="curve" smooth="yes"/>
      <point x="384" y="113"/>
      <point x="285" y="314"/>
      <point x="285" y="551" type="curve" smooth="yes"/>
      <point x="285" y="810"/>
      <point x="429" y="983"/>
      <point x="621" y="986" type="curve"/>
      <point x="854" y="986"/>
      <point x="921" y="748"/>
      <point x="921" y="551" type="curve" smooth="yes"/>
      <point x="921" y="351"/>
      <point x="852" y="113"/>
    </contour>
  </outline>
</glyph>
<glyph name="c" format="1">
  <advance width="962"/>
  <unicode hex="0063"/>
  <outline>
    <contour>
      <point x="716" y="-25"/>
      <point x="832" y="8"/>
      <point x="904" y="75" type="curve"/>
      <point x="862" y="195" type="line"/>
      <point x="801" y="152"/>
      <point x="714" y="113"/>
      <point x="615" y="113" type="curve"/>
      <point x="395" y="113"/>
      <point x="248" y="294"/>
      <point x="248" y="545" type="curve" smooth="yes"/>
      <point x="248" y="799"/>
      <point x="401" y="986"/>
      <point x="602" y="986" type="curve"/>
      <point x="685" y="986"/>
      <point x="777" y="966"/>
      <point x="861" y="910" type="curve"/>
      <point x="903" y="1029" type="line"/>
      <point x="841" y="1088"/>
      <point x="732" y="1124"/>
      <point x="604" y="1124" type="curve" smooth="yes"/>
      <point x="277" y="1124"/>
      <point x="79" y="852"/>
      <point x="77" y="549" type="curve"/>
      <point x="77" y="243"/>
      <point x="266" y="-25"/>
      <point x="607" y="-25" type="curve" smooth="yes"/>
    </contour>
    <contour>
      <point x="474" y="1098" type="move" name="top"/>
    </contour>
    <contour>
      <point x="474" y="0" type="move" name="bottom"/>
    </contour>
  </outline>
</glyph>
<glyph name="d" format="1">
  <advance width="1175"/>
  <unicode hex="0064"/>
  <outline>
    <contour>
      <point x="559" y="124" type="curve" smooth="yes"/>
      <point x="332" y="124"/>
      <point x="250" y="338"/>
      <point x="250" y="556" type="curve" smooth="yes"/>
      <point x="250" y="755"/>
      <point x="333" y="977"/>
      <point x="557" y="977" type="curve" smooth="yes"/>
      <point x="791" y="977"/>
      <point x="889" y="786"/>
      <point x="889" y="551" type="curve" smooth="yes"/>
      <point x="889" y="315"/>
      <point x="784" y="124"/>
    </contour>
    <contour>
      <point x="548" y="-24" type="curve" smooth="yes"/>
      <point x="700" y="-24"/>
      <point x="823" y="60"/>
      <point x="886" y="172" type="curve"/>
      <point x="907" y="0" type="line"/>
      <point x="1056" y="0" type="line"/>
      <point x="1056" y="1510" type="line"/>
      <point x="888" y="1490" type="line"/>
      <point x="888" y="937" type="line"/>
      <point x="831" y="1053"/>
      <point x="687" y="1125"/>
      <point x="542" y="1125" type="curve" smooth="yes"/>
      <point x="264" y="1125"/>
      <point x="77" y="872"/>
      <point x="77" y="561" type="curve" smooth="yes"/>
      <point x="77" y="218"/>
      <point x="252" y="-24"/>
    </contour>
    <contour>
      <point x="587" y="549" type="move" name="center"/>
    </contour>
  </outline>
</glyph>
<glyph name="e" format="1">
  <advance width="1083"/>
  <unicode hex="0065"/>
  <outline>
    <contour>
      <point x="582" y="-25" type="curve" smooth="yes"/>
      <point x="758" y="-25"/>
      <point x="897" y="30"/>
      <point x="987" y="107" type="curve"/>
      <point x="935" y="229" type="line"/>
      <point x="857" y="176"/>
      <point x="743" y="119"/>
      <point x="587" y="119" type="curve" smooth="yes"/>
      <point x="394" y="119"/>
      <point x="250" y="272"/>
      <point x="250" y="519" type="curve"/>
      <point x="1001" y="519" type="line"/>
      <point x="1001" y="538"/>
      <point x="1003" y="578"/>
      <point x="1003" y="594" type="curve" smooth="yes"/>
      <point x="1003" y="918"/>
      <point x="835" y="1124"/>
      <point x="562" y="1124" type="curve"/>
      <point x="276" y="1116"/>
      <point x="78" y="879"/>
      <point x="78" y="551" type="curve" smooth="yes"/>
      <point x="78" y="198"/>
      <point x="269" y="-25"/>
    </contour>
    <contour>
      <point x="256" y="635" type="line"/>
      <point x="275" y="851"/>
      <point x="395" y="988"/>
      <point x="561" y="988" type="curve" smooth="yes"/>
      <point x="724" y="988"/>
      <point x="841" y="869"/>
      <point x="841" y="635" type="curve"/>
    </contour>
    <contour>
      <point x="541" y="1098" type="move" name="top"/>
    </contour>
    <contour>
      <point x="541" y="0" type="move" name="bottom"/>
    </contour>
    <contour>
      <point x="976" y="10" type="move" name="ogonek"/>
    </contour>
  </outline>
</glyph>
<glyph name="f" format="1">
  <advance width="641"/>
  <unicode hex="0066"/>
  <outline>
    <contour>
      <point x="39" y="980" type="line"/>
      <point x="39" y="1098" type="line"/>
      <point x="200" y="1098" type="line"/>
      <point x="200.0" y="1108.9090907"/>
      <point x="200.081641449" y="1119.56269168"/>
      <point x="200.247990366" y="1129.96616105" type="curve" smooth="yes"/>
      <point x="205.449166615" y="1455.24797647"/>
      <point x="293.460743638" y="1536.0"/>
      <point x="558" y="1536" type="curve" smooth="yes"/>
      <point x="631" y="1536" type="line"/>
      <point x="651" y="1408" type="line"/>
      <point x="557" y="1408" type="line" smooth="yes"/>
      <point x="382.696276665" y="1408.0"/>
      <point x="368.969950995" y="1338.14429593"/>
      <point x="368.058998086" y="1130.1685605" type="curve" smooth="yes"/>
      <point x="368.013549266" y="1119.79233617"/>
      <point x="368.0" y="1109.07230854"/>
      <point x="368" y="1098" type="curve"/>
      <point x="617" y="1098" type="line"/>
      <point x="617" y="980" type="line"/>
      <point x="368" y="980" type="line"/>
      <point x="368" y="0" type="line"/>
      <point x="200" y="0" type="line"/>
      <point x="200" y="980" type="line"/>
    </contour>
  </outline>
</glyph>
<glyph name="g" format="1">
  <advance width="1164"/>
  <unicode hex="0067"/>
  <outline>
    <contour>
      <point x="323" y="-502" type="line"/>
      <point x="301" y="-351" type="line"/>
      <point x="505" y="-351" type="line" smooth="yes"/>
      <point x="850" y="-351"/>
      <point x="888" y="-193"/>
      <point x="888" y="83" type="curve" smooth="yes"/>
      <point x="888" y="180" type="line"/>
      <point x="816" y="76"/>
      <point x="723" y="1"/>
      <point x="550" y="1" type="curve" smooth="yes"/>
      <point x="227" y="1"/>
      <point x="79" y="294"/>
      <point x="79" y="545" type="curve" smooth="yes"/>
      <point x="79" y="857"/>
      <point x="229" y="1124"/>
      <point x="562" y="1124" type="curve" smooth="yes"/>
      <point x="707" y="1124"/>
      <point x="810" y="1064"/>
      <point x="893" y="951" type="curve"/>
      <point x="893" y="1098" type="line"/>
      <point x="1056" y="1098" type="line"/>
      <point x="1056" y="79" type="line" smooth="yes"/>
      <point x="1056" y="-206"/>
      <point x="1014" y="-502"/>
      <point x="501" y="-502" type="curve" smooth="yes"/>
    </contour>
    <contour>
      <point x="575" y="143" type="curve" smooth="yes"/>
      <point x="810" y="143"/>
      <point x="893" y="319"/>
      <point x="893" y="516" type="curve" smooth="yes"/>
      <point x="893" y="597" type="line" smooth="yes"/>
      <point x="893" y="805"/>
      <point x="803" y="982"/>
      <point x="576" y="982" type="curve" smooth="yes"/>
      <point x="340" y="982"/>
      <point x="251" y="744"/>
      <point x="251" y="554" type="curve" smooth="yes"/>
      <point x="251" y="366"/>
      <point x="349" y="143"/>
    </contour>
    <contour>
      <point x="582" y="1098" type="move"/>
    </contour>
    <contour>
      <point x="582" y="1098" type="move"/>
    </contour>
    <contour>
      <point x="582" y="1098" type="move"/>
    </contour>
    <contour>
      <point x="583" y="1098" type="move" name="top"/>
    </contour>
  </outline>
</glyph>
<glyph name="h" format="1">
  <advance width="1112"/>
  <unicode hex="0068"/>
  <outline>
    <contour>
      <point x="282" y="0" type="line"/>
      <point x="282" y="768" type="line"/>
      <point x="309" y="872"/>
      <point x="448" y="980"/>
      <point x="619" y="980" type="curve" smooth="yes"/>
      <point x="806" y="980"/>
      <point x="839" y="865"/>
      <point x="839" y="617" type="curve" smooth="yes"/>
      <point x="839" y="0" type="line"/>
      <point x="1007" y="0" type="line"/>
      <point x="1007" y="664" type="line" smooth="yes"/>
      <point x="1007" y="961"/>
      <point x="903" y="1124"/>
      <point x="674" y="1124" type="curve" smooth="yes"/>
      <point x="507" y="1124"/>
      <point x="367" y="1063"/>
      <point x="282" y="961" type="curve"/>
      <point x="282" y="1510" type="line"/>
      <point x="114" y="1490" type="line"/>
      <point x="114" y="0" type="line"/>
    </contour>
    <contour>
      <point x="556" y="549" type="move"/>
    </contour>
    <contour>
      <point x="556" y="549" type="move"/>
    </contour>
    <contour>
      <point x="560" y="1098" type="move"/>
    </contour>
    <contour>
      <point x="556" y="549" type="move"/>
    </contour>
    <contour>
      <point x="556" y="1098" type="move" name="top"/>
    </contour>
    <contour>
      <point x="556" y="549" type="move" name="center"/>
    </contour>
  </outline>
</glyph>
<glyph name="k" format="1">
  <advance width="1007"/>
  <unicode hex="006B"/>
  <outline>
    <contour>
      <point x="115" y="1490" type="line"/>
      <point x="283" y="1510" type="line"/>
      <point x="283" y="632" type="line"/>
      <point x="772" y="1098" type="line"/>
      <point x="999" y="1098" type="line"/>
      <point x="530" y="642" type="line"/>
      <point x="1032" y="0" type="line"/>
      <point x="817" y="0" type="line"/>
      <point x="402" y="563" type="line"/>
      <point x="283" y="461" type="line"/>
      <point x="283" y="0" type="line"/>
      <point x="115" y="0" type="line"/>
    </contour>
    <contour>
      <point x="504" y="0" type="line"/>
    </contour>
    <contour>
      <point x="504" y="0" type="line"/>
    </contour>
    <contour>
      <point x="504" y="0" type="line" smooth="yes"/>
    </contour>
    <contour>
      <point x="499" y="0" type="move" name="bottom"/>
    </contour>
  </outline>
</glyph>
<glyph name="l" format="1">
  <advance width="550"/>
  <unicode hex="006C"/>
  <outline>
    <contour>
      <point x="311" y="1510" type="line"/>
      <point x="311" y="431" type="line" smooth="yes"/>
      <point x="311" y="192"/>
      <point x="318" y="117"/>
      <point x="432" y="117" type="curve" smooth="yes"/>
      <point x="457" y="117"/>
      <point x="470" y="119"/>
      <point x="522" y="123" type="curve"/>
      <point x="533" y="-8" type="line"/>
      <point x="476" y="-18"/>
      <point x="436" y="-21"/>
      <point x="419" y="-21" type="curve" smooth="yes"/>
      <point x="149" y="-21"/>
      <point x="143" y="104"/>
      <point x="143" y="468" type="curve" smooth="yes"/>
      <point x="143" y="1490" type="line"/>
    </contour>
    <contour>
      <point x="297" y="1098" type="move"/>
    </contour>
    <contour>
      <point x="297" y="-1" type="move"/>
    </contour>
    <contour>
      <point x="552" y="1098" type="move"/>
    </contour>
    <contour>
      <point x="297" y="1098" type="move"/>
    </contour>
    <contour>
      <point x="552" y="1098" type="move"/>
    </contour>
    <contour>
      <point x="297" y="1098" type="move"/>
    </contour>
    <contour>
      <point x="552" y="1098" type="move"/>
    </contour>
    <contour>
      <point x="297" y="1098" type="move" name="top"/>
    </contour>
    <contour>
      <point x="297" y="0" type="move" name="bottom"/>
    </contour>
    <contour>
      <point x="552" y="1098" type="move" name="topright"/>
    </contour>
  </outline>
</glyph>
<glyph name="m" format="1">
  <advance width="1773"/>
  <unicode hex="006D"/>
  <outline>
    <contour>
      <point x="114" y="0" type="line"/>
      <point x="282" y="0" type="line"/>
      <point x="282" y="769" type="line"/>
      <point x="318" y="881"/>
      <point x="435" y="979"/>
      <point x="626" y="979" type="curve" smooth="yes"/>
      <point x="792" y="979"/>
      <point x="825" y="852"/>
      <point x="825" y="628" type="curve" smooth="yes"/>
      <point x="825" y="0" type="line"/>
      <point x="993" y="0" type="line"/>
      <point x="993" y="761" type="line"/>
      <point x="1038" y="897"/>
      <point x="1164" y="979"/>
      <point x="1303" y="979" type="curve" smooth="yes"/>
      <point x="1490" y="979"/>
      <point x="1500" y="814"/>
      <point x="1500" y="630" type="curve" smooth="yes"/>
      <point x="1500" y="0" type="line"/>
      <point x="1668" y="0" type="line"/>
      <point x="1668" y="667" type="line" smooth="yes"/>
      <point x="1668" y="921"/>
      <point x="1594" y="1124"/>
      <point x="1338" y="1124" type="curve" smooth="yes"/>
      <point x="1162" y="1124"/>
      <point x="1035" y="1054"/>
      <point x="938" y="932" type="curve"/>
      <point x="884" y="1071"/>
      <point x="771" y="1124"/>
      <point x="634" y="1124" type="curve" smooth="yes"/>
      <point x="506" y="1124"/>
      <point x="365" y="1079"/>
      <point x="271" y="954" type="curve"/>
      <point x="255" y="1098" type="line"/>
      <point x="111" y="1098" type="line"/>
      <point x="111" y="1066"/>
      <point x="114" y="913"/>
      <point x="114" y="820" type="curve" smooth="yes"/>
    </contour>
  </outline>
</glyph>
<glyph name="n" format="1">
  <advance width="1112"/>
  <unicode hex="006E"/>
  <outline>
    <contour>
      <point x="661" y="1124" type="curve" smooth="yes"/>
      <point x="902" y="1124"/>
      <point x="1007" y="965"/>
      <point x="1007" y="657" type="curve" smooth="yes"/>
      <point x="1007" y="0" type="line"/>
      <point x="839" y="0" type="line"/>
      <point x="839" y="551" type="line" smooth="yes"/>
      <point x="839" y="836"/>
      <point x="828" y="980"/>
      <point x="625" y="980" type="curve" smooth="yes"/>
      <point x="441" y="980"/>
      <point x="309" y="849"/>
      <point x="282" y="750" type="curve"/>
      <point x="282" y="0" type="line"/>
      <point x="114" y="0" type="line"/>
      <point x="114" y="831" type="line"/>
      <point x="111" y="1098" type="line"/>
      <point x="255" y="1098" type="line"/>
      <point x="271" y="935" type="line"/>
      <point x="356" y="1052"/>
      <point x="509" y="1124"/>
    </contour>
    <contour>
      <point x="554" y="1098" type="line"/>
    </contour>
    <contour>
      <point x="554" y="0" type="line"/>
    </contour>
    <contour>
      <point x="554" y="1098" type="line"/>
    </contour>
    <contour>
      <point x="554" y="0" type="line"/>
    </contour>
    <contour>
      <point x="554" y="1098" type="line" smooth="yes"/>
    </contour>
    <contour>
      <point x="554" y="0" type="line" smooth="yes"/>
    </contour>
    <contour>
      <point x="554" y="1098" type="move" name="top"/>
    </contour>
    <contour>
      <point x="554" y="0" type="move" name="bottom"/>
    </contour>
  </outline>
</glyph>
<glyph name="p" format="1">
  <advance width="1165"/>
  <unicode hex="0070"/>
  <outline>
    <contour>
      <point x="286" y="548" type="curve" smooth="yes"/>
      <point x="286" y="313"/>
      <point x="374" y="118"/>
      <point x="603" y="118" type="curve" smooth="yes"/>
      <point x="833" y="118"/>
      <point x="915" y="349"/>
      <point x="915" y="548" type="curve" smooth="yes"/>
      <point x="915" y="747"/>
      <point x="833" y="982"/>
      <point x="603" y="982" type="curve" smooth="yes"/>
      <point x="374" y="982"/>
      <point x="286" y="785"/>
    </contour>
    <contour>
      <point x="121" y="-459" type="line"/>
      <point x="121" y="1098" type="line"/>
      <point x="279" y="1098" type="line"/>
      <point x="289" y="951" type="line"/>
      <point x="373" y="1064"/>
      <point x="483" y="1124"/>
      <point x="628" y="1124" type="curve" smooth="yes"/>
      <point x="952" y="1124"/>
      <point x="1088" y="854"/>
      <point x="1088" y="537" type="curve" smooth="yes"/>
      <point x="1088" y="240"/>
      <point x="914" y="-25"/>
      <point x="628" y="-25" type="curve" smooth="yes"/>
      <point x="488" y="-25"/>
      <point x="365" y="33"/>
      <point x="289" y="160" type="curve"/>
      <point x="289" y="-437" type="line"/>
    </contour>
  </outline>
</glyph>
<glyph name="q" format="1">
  <advance width="1168"/>
  <unicode hex="0071"/>
  <outline>
    <contour>
      <point x="886" y="551" type="curve" smooth="yes"/>
      <point x="886" y="317"/>
      <point x="793" y="123"/>
      <point x="559" y="123" type="curve" smooth="yes"/>
      <point x="323" y="123"/>
      <point x="250" y="346"/>
      <point x="250" y="551" type="curve" smooth="yes"/>
      <point x="250" y="748"/>
      <point x="322" y="976"/>
      <point x="558" y="976" type="curve" smooth="yes"/>
      <point x="790" y="976"/>
      <point x="886" y="783"/>
    </contour>
    <contour>
      <point x="538.944" y="-25.0857" type="curve" smooth="yes"/>
      <point x="691.783" y="-25.0857"/>
      <point x="814.334" y="50.3445"/>
      <point x="883" y="171" type="curve"/>
      <point x="883" y="-459" type="line"/>
      <point x="1051" y="-439" type="line"/>
      <point x="1051" y="1098" type="line"/>
      <point x="886" y="1098" type="line"/>
      <point x="886" y="938" type="line"/>
      <point x="815" y="1049"/>
      <point x="704" y="1124"/>
      <point x="551" y="1124" type="curve" smooth="yes"/>
      <point x="230" y="1124"/>
      <point x="77" y="855"/>
      <point x="77" y="538" type="curve" smooth="yes"/>
      <point x="77" y="243.682"/>
      <point x="233.96" y="-25.0857"/>
    </contour>
  </outline>
</glyph>
<glyph name="r" format="1">
  <advance width="654"/>
  <unicode hex="0072"/>
  <outline>
    <contour>
      <point x="123" y="0" type="line"/>
      <point x="291" y="0" type="line"/>
      <point x="291" y="644" type="line" smooth="yes"/>
      <point x="291" y="808"/>
      <point x="394" y="945"/>
      <point x="599" y="945" type="curve" smooth="yes"/>
      <point x="639" y="945" type="line"/>
      <point x="627" y="1098" type="line"/>
      <point x="595" y="1098" type="line" smooth="yes"/>
      <point x="466" y="1098"/>
      <point x="352" y="1049"/>
      <point x="275" y="908" type="curve"/>
      <point x="262" y="1098" type="line"/>
      <point x="120" y="1098" type="line"/>
      <point x="120" y="1015"/>
      <point x="123" y="932"/>
      <point x="123" y="845" type="curve" smooth="yes"/>
    </contour>
    <contour>
      <point x="330" y="1098" type="move"/>
    </contour>
    <contour>
      <point x="330" y="0" type="move"/>
    </contour>
    <contour>
      <point x="330" y="1098" type="move"/>
    </contour>
    <contour>
      <point x="330" y="0" type="move"/>
    </contour>
    <contour>
      <point x="330" y="1098" type="move"/>
    </contour>
    <contour>
      <point x="330" y="0" type="move"/>
    </contour>
    <contour>
      <point x="330" y="1098" type="move" name="top"/>
    </contour>
    <contour>
      <point x="330" y="0" type="move" name="bottom"/>
    </contour>
  </outline>
</glyph>
<glyph name="s" format="1">
  <advance width="931"/>
  <unicode hex="0073"/>
  <outline>
    <contour>
      <point x="699" y="-25"/>
      <point x="847" y="88"/>
      <point x="854" y="294" type="curve"/>
      <point x="854" y="296"/>
      <point x="854" y="298"/>
      <point x="854" y="299" type="curve" smooth="yes"/>
      <point x="854" y="481"/>
      <point x="755" y="574"/>
      <point x="577" y="622" type="curve" smooth="yes"/>
      <point x="426" y="663" type="line" smooth="yes"/>
      <point x="308" y="694"/>
      <point x="270" y="748"/>
      <point x="269" y="815" type="curve"/>
      <point x="269" y="928"/>
      <point x="358" y="990"/>
      <point x="479" y="991" type="curve"/>
      <point x="599" y="991"/>
      <point x="699" y="956"/>
      <point x="759" y="932" type="curve"/>
      <point x="799" y="1053" type="line"/>
      <point x="715" y="1096"/>
      <point x="608" y="1124"/>
      <point x="467" y="1124" type="curve"/>
      <point x="222" y="1122"/>
      <point x="100" y="970"/>
      <point x="100" y="816" type="curve"/>
      <point x="102" y="682"/>
      <point x="165" y="573"/>
      <point x="384" y="512" type="curve" smooth="yes"/>
      <point x="531" y="471" type="line" smooth="yes"/>
      <point x="654" y="437"/>
      <point x="697" y="372"/>
      <point x="697" y="302" type="curve" smooth="yes"/>
      <point x="697" y="298"/>
      <point x="697" y="294"/>
      <point x="697" y="290" type="curve"/>
      <point x="687" y="176"/>
      <point x="607" y="114"/>
      <point x="482" y="114" type="curve" smooth="yes"/>
      <point x="477" y="114"/>
      <point x="471" y="114"/>
      <point x="465" y="114" type="curve"/>
      <point x="316" y="114"/>
      <point x="195" y="180"/>
      <point x="154" y="206" type="curve"/>
      <point x="111" y="78" type="line"/>
      <point x="177" y="29"/>
      <point x="323" y="-25"/>
      <point x="491" y="-25" type="curve"/>
    </contour>
    <contour>
      <point x="467" y="1098" type="move" name="top"/>
    </contour>
    <contour>
      <point x="467" y="0" type="move" name="bottom"/>
    </contour>
  </outline>
</glyph>
<glyph name="t" format="1">
  <advance width="691"/>
  <unicode hex="0074"/>
  <outline>
    <contour>
      <point x="355" y="980" type="line"/>
      <point x="355" y="367" type="line" smooth="yes"/>
      <point x="355" y="162"/>
      <point x="380" y="118"/>
      <point x="514" y="118" type="curve" smooth="yes"/>
      <point x="533" y="118"/>
      <point x="573" y="123"/>
      <point x="650" y="129" type="curve"/>
      <point x="665" y="-7" type="line"/>
      <point x="540" y="-18"/>
      <point x="509" y="-20"/>
      <point x="475" y="-20" type="curve" smooth="yes"/>
      <point x="208" y="-20"/>
      <point x="187" y="111"/>
      <point x="187" y="445" type="curve" smooth="yes"/>
      <point x="187" y="980" type="line"/>
      <point x="20" y="980" type="line"/>
      <point x="33" y="1098" type="line"/>
      <point x="187" y="1098" type="line"/>
      <point x="231" y="1453" type="line"/>
      <point x="355" y="1462" type="line"/>
      <point x="355" y="1098" type="line"/>
      <point x="646" y="1098" type="line"/>
      <point x="646" y="980" type="line"/>
    </contour>
    <contour>
      <point x="359" y="0" type="move" name="bottom"/>
    </contour>
    <contour>
      <point x="359" y="549" type="move" name="center"/>
    </contour>
  </outline>
</glyph>
<glyph name="u" format="1">
  <advance width="1092"/>
  <unicode hex="0075"/>
  <outline>
    <contour>
      <point x="105" y="366" type="curve" smooth="yes"/>
      <point x="105" y="1098" type="line"/>
      <point x="273" y="1098" type="line"/>
      <point x="273" y="364" type="line" smooth="yes"/>
      <point x="273" y="167"/>
      <point x="389" y="113"/>
      <point x="547" y="113" type="curve" smooth="yes"/>
      <point x="703" y="113"/>
      <point x="818" y="169"/>
      <point x="818" y="364" type="curve" smooth="yes"/>
      <point x="818" y="1098" type="line"/>
      <point x="986" y="1098" type="line"/>
      <point x="986" y="366" type="line" smooth="yes"/>
      <point x="986" y="78"/>
      <point x="779" y="-25"/>
      <point x="547" y="-25" type="curve" smooth="yes"/>
      <point x="315" y="-25"/>
      <point x="105" y="80"/>
    </contour>
    <contour>
      <point x="547" y="1098" type="move"/>
    </contour>
    <contour>
      <point x="986" y="10" type="move"/>
    </contour>
    <contour>
      <point x="548" y="1098" type="move" name="top"/>
    </contour>
    <contour>
      <point x="987" y="10" type="move" name="ogonek"/>
    </contour>
  </outline>
</glyph>
<glyph name="w" format="1">
  <advance width="1619"/>
  <unicode hex="0077"/>
  <outline>
    <contour>
      <point x="15" y="1098" type="line"/>
      <point x="188" y="1098" type="line"/>
      <point x="433" y="223" type="line"/>
      <point x="722" y="1098" type="line"/>
      <point x="919" y="1098" type="line"/>
      <point x="1199" y="227" type="line"/>
      <point x="1434" y="1098" type="line"/>
      <point x="1604" y="1098" type="line"/>
      <point x="1275" y="0" type="line"/>
      <point x="1109" y="0" type="line"/>
      <point x="818" y="928" type="line"/>
      <point x="511" y="0" type="line"/>
      <point x="342" y="0" type="line"/>
    </contour>
    <contour>
      <point x="810" y="1098" type="line"/>
    </contour>
    <contour>
      <point x="810" y="1098" type="line"/>
    </contour>
    <contour>
      <point x="810" y="1098" type="line" smooth="yes"/>
    </contour>
    <contour>
      <point x="810" y="1098" type="move" name="top"/>
    </contour>
  </outline>
</glyph>
<glyph name="x" format="1">
  <advance width="1042"/>
  <unicode hex="0078"/>
  <outline>
    <contour>
      <point x="823" y="1098" type="line"/>
      <point x="1018" y="1098" type="line"/>
      <point x="624" y="552" type="line"/>
      <point x="1018" y="0" type="line"/>
      <point x="836" y="0" type="line"/>
      <point x="526" y="439" type="line"/>
      <point x="217" y="0" type="line"/>
      <point x="24" y="0" type="line"/>
      <point x="426" y="556" type="line"/>
      <point x="34" y="1098" type="line"/>
      <point x="227" y="1098" type="line"/>
      <point x="524" y="682" type="line"/>
    </contour>
  </outline>
</glyph>
<glyph name="y" format="1">
  <advance width="1012"/>
  <unicode hex="0079"/>
  <outline>
    <contour>
      <point x="526" y="206"/>
      <point x="180" y="1098"/>
      <point x="180" y="1098" type="curve"/>
      <point x="4" y="1098" type="line"/>
      <point x="431" y="23" type="line"/>
      <point x="316" y="-314"/>
      <point x="282" y="-351"/>
      <point x="46" y="-351" type="curve" smooth="yes"/>
      <point x="17" y="-351" type="line"/>
      <point x="36" y="-502" type="line"/>
      <point x="89" y="-502" type="line" smooth="yes"/>
      <point x="400" y="-502"/>
      <point x="501" y="-314"/>
      <point x="593" y="-48" type="curve" smooth="yes"/>
      <point x="993" y="1098" type="line"/>
      <point x="816" y="1098" type="line"/>
      <point x="815" y="1099"/>
      <point x="613" y="470"/>
      <point x="526" y="207" type="curve" smooth="yes"/>
    </contour>
    <contour>
      <point x="510" y="1098" type="move" name="top"/>
    </contour>
  </outline>
</glyph>
<glyph name="z" format="1">
  <advance width="861"/>
  <unicode hex="007A"/>
  <outline>
    <contour>
      <point x="86" y="139" type="line"/>
      <point x="86" y="0" type="line"/>
      <point x="823" y="0" type="line"/>
      <point x="823" y="136" type="line"/>
      <point x="273" y="136" type="line"/>
      <point x="803" y="964" type="line"/>
      <point x="803" y="1098" type="line"/>
      <point x="80" y="1098" type="line"/>
      <point x="80" y="964" type="line"/>
      <point x="611" y="964" type="line"/>
    </contour>
    <contour>
      <point x="437" y="1098" type="move" name="top"/>
    </contour>
  </outline>
</glyph>
<glyph name="exclamdown" format="1">
  <advance width="497"/>
  <unicode hex="00A1"/>
  <outline>
    <contour>
      <point x="152" y="953" type="line"/>
      <point x="152" y="1174" type="line"/>
      <point x="341" y="1174" type="line"/>
      <point x="341" y="953" type="line"/>
    </contour>
    <contour>
      <point x="332" y="747" type="line"/>
      <point x="332" y="-415" type="line"/>
      <point x="196" y="-415" type="line"/>
      <point x="196" y="747" type="line"/>
    </contour>
  </outline>
</glyph>
<glyph name="cent" format="1">
  <advance width="1080"/>
  <unicode hex="00A2"/>
  <outline>
    <contour>
      <point x="889" y="371" type="line"/>
      <point x="798" y="329"/>
      <point x="712" y="308"/>
      <point x="637" y="307" type="curve"/>
      <point x="637" y="1185" type="line"/>
      <point x="712" y="1183"/>
      <point x="796" y="1160"/>
      <point x="887" y="1112" type="curve"/>
      <point x="929" y="1231" type="line"/>
      <point x="829" y="1292"/>
      <point x="730" y="1320"/>
      <point x="637" y="1323" type="curve"/>
      <point x="637" y="1503" type="line"/>
      <point x="548" y="1503" type="line"/>
      <point x="548" y="1317" type="line"/>
      <point x="279" y="1277"/>
      <point x="105" y="1037"/>
      <point x="103" y="748" type="curve"/>
      <point x="103" y="464"/>
      <point x="269" y="211"/>
      <point x="548" y="177" type="curve"/>
      <point x="548" y="7" type="line"/>
      <point x="637" y="7" type="line"/>
      <point x="637" y="174" type="line"/>
      <point x="728" y="178"/>
      <point x="826" y="206"/>
      <point x="930" y="264" type="curve"/>
    </contour>
    <contour>
      <point x="548" y="316" type="line"/>
      <point x="364" y="350"/>
      <point x="273" y="548"/>
      <point x="273" y="746" type="curve" smooth="yes"/>
      <point x="273" y="945"/>
      <point x="365" y="1145"/>
      <point x="548" y="1178" type="curve"/>
    </contour>
  </outline>
</glyph>
<glyph name="sterling" format="1">
  <advance width="1127"/>
  <unicode hex="00A3"/>
  <outline>
    <contour>
      <point x="103" y="707" type="line"/>
      <point x="103" y="849" type="line"/>
      <point x="277" y="849" type="line"/>
      <point x="277" y="935" type="line" smooth="yes"/>
      <point x="277" y="1245"/>
      <point x="326" y="1525"/>
      <point x="716" y="1525" type="curve" smooth="yes"/>
      <point x="889" y="1525"/>
      <point x="1003" y="1446"/>
      <point x="1070" y="1349" type="curve"/>
      <point x="975" y="1242" type="line"/>
      <point x="903" y="1325"/>
      <point x="828" y="1373"/>
      <point x="716" y="1373" type="curve" smooth="yes"/>
      <point x="520" y="1373"/>
      <point x="453" y="1222"/>
      <point x="453" y="1008" type="curve" smooth="yes"/>
      <point x="453" y="849" type="line"/>
      <point x="851" y="849" type="line"/>
      <point x="851" y="707" type="line"/>
      <point x="453" y="707" type="line"/>
      <point x="453" y="530" type="line" smooth="yes"/>
      <point x="453" y="390"/>
      <point x="434" y="240"/>
      <point x="348" y="152" type="curve"/>
      <point x="380" y="156"/>
      <point x="405" y="162"/>
      <point x="437" y="162" type="curve" smooth="yes"/>
      <point x="1051" y="162" type="line"/>
      <point x="1039" y="0" type="line"/>
      <point x="135" y="0" type="line"/>
      <point x="113" y="137" type="line"/>
      <point x="249" y="209"/>
      <point x="277" y="311"/>
      <point x="277" y="467" type="curve" smooth="yes"/>
      <point x="277" y="707" type="line"/>
    </contour>
  </outline>
</glyph>
<glyph name="currency" format="1">
  <advance width="1023"/>
  <unicode hex="00A4"/>
  <outline>
    <contour>
      <point x="221.7" y="741" type="curve" smooth="yes"/>
      <point x="221.7" y="550.56"/>
      <point x="376.26" y="396"/>
      <point x="566.7" y="396" type="curve" smooth="yes"/>
      <point x="757.14" y="396"/>
      <point x="911.7" y="550.56"/>
      <point x="911.7" y="741" type="curve" smooth="yes"/>
      <point x="911.7" y="931.44"/>
      <point x="757.14" y="1086"/>
      <point x="566.7" y="1086" type="curve" smooth="yes"/>
      <point x="376.26" y="1086"/>
      <point x="221.7" y="931.44"/>
    </contour>
    <contour>
      <point x="274.879" y="1063.51" type="line"/>
      <point x="352.071" y="1133.41"/>
      <point x="454.442" y="1176"/>
      <point x="566.7" y="1176" type="curve" smooth="yes"/>
      <point x="680.439" y="1176"/>
      <point x="784.028" y="1132.27"/>
      <point x="861.563" y="1060.73" type="curve"/>
      <point x="1099" y="1280" type="line"/>
      <point x="1144" y="1224" type="line"/>
      <point x="910.311" y="1007.68" type="line"/>
      <point x="967.583" y="934.016"/>
      <point x="1001.7" y="841.468"/>
      <point x="1001.7" y="741" type="curve" smooth="yes"/>
      <point x="1001.7" y="640.796"/>
      <point x="967.763" y="548.471"/>
      <point x="910.762" y="474.898" type="curve"/>
      <point x="1144" y="259" type="line"/>
      <point x="1099" y="203" type="line"/>
      <point x="862.104" y="421.772" type="line"/>
      <point x="784.51" y="349.929"/>
      <point x="680.704" y="306"/>
      <point x="566.7" y="306" type="curve" smooth="yes"/>
      <point x="454.177" y="306"/>
      <point x="351.588" y="348.795"/>
      <point x="274.333" y="418.987" type="curve"/>
      <point x="41" y="203" type="line"/>
      <point x="-12" y="254" type="line"/>
      <point x="224.548" y="472.45" type="line"/>
      <point x="166.397" y="546.418"/>
      <point x="131.7" y="639.682"/>
      <point x="131.7" y="741" type="curve" smooth="yes"/>
      <point x="131.7" y="842.583"/>
      <point x="166.578" y="936.069"/>
      <point x="225.004" y="1010.13" type="curve"/>
      <point x="-12" y="1229" type="line"/>
      <point x="41" y="1280" type="line"/>
    </contour>
  </outline>
</glyph>
<glyph name="yen" format="1">
  <advance width="1129"/>
  <unicode hex="00A5"/>
  <outline>
    <contour>
      <point x="640" y="330" type="line"/>
      <point x="640" y="0" type="line"/>
      <point x="488" y="0" type="line"/>
      <point x="488" y="330" type="line"/>
      <point x="97" y="330" type="line"/>
      <point x="97" y="452" type="line"/>
      <point x="487" y="452" type="line"/>
      <point x="487" y="646" type="line"/>
      <point x="100" y="646" type="line"/>
      <point x="100" y="767" type="line"/>
      <point x="451" y="767" type="line"/>
      <point x="34" y="1496" type="line"/>
      <point x="213" y="1496" type="line"/>
      <point x="565" y="875" type="line"/>
      <point x="925" y="1496" type="line"/>
      <point x="1095" y="1496" type="line"/>
      <point x="665" y="767" type="line"/>
      <point x="1014" y="767" type="line"/>
      <point x="1014" y="646" type="line"/>
      <point x="639" y="646" type="line"/>
      <point x="639" y="452" type="line"/>
      <point x="1017" y="452" type="line"/>
      <point x="1017" y="330" type="line"/>
    </contour>
  </outline>
</glyph>
<glyph name="dieresis" format="1">
  <advance width="770"/>
  <unicode hex="00A8"/>
  <outline>
    <contour>
      <point x="272" y="1254" type="line"/>
      <point x="118" y="1254" type="line"/>
      <point x="118" y="1466" type="line"/>
      <point x="272" y="1466" type="line"/>
    </contour>
    <contour>
      <point x="663" y="1254" type="line"/>
      <point x="508" y="1254" type="line"/>
      <point x="508" y="1466" type="line"/>
      <point x="663" y="1466" type="line"/>
    </contour>
    <contour>
      <point x="390.5" y="1098" type="line"/>
    </contour>
    <contour>
      <point x="390.5" y="1098" type="line"/>
    </contour>
    <contour>
      <point x="390.5" y="1098" type="line" smooth="yes"/>
    </contour>
    <contour>
      <point x="390.5" y="1098" type="move" name="_top"/>
    </contour>
  </outline>
</glyph>
<glyph name="ordfeminine" format="1">
  <advance width="1105"/>
  <unicode hex="00AA"/>
  <outline>
    <contour>
      <point x="400" y="94"/>
      <point x="332" y="139"/>
      <point x="332" y="247" type="curve" smooth="yes"/>
      <point x="332" y="383"/>
      <point x="412" y="428"/>
      <point x="687" y="464" type="curve" smooth="yes"/>
      <point x="690" y="464"/>
      <point x="776" y="475"/>
      <point x="776" y="475" type="curve" smooth="yes"/>
      <point x="776" y="237" type="line"/>
      <point x="713" y="150"/>
      <point x="585" y="94"/>
      <point x="493" y="94" type="curve" smooth="yes"/>
    </contour>
    <contour>
      <point x="579" y="-22"/>
      <point x="696" y="10"/>
      <point x="780" y="106" type="curve"/>
      <point x="780" y="106"/>
      <point x="801" y="1"/>
      <point x="802" y="0" type="curve"/>
      <point x="923" y="0" type="line"/>
      <point x="923" y="711" type="line" smooth="yes"/>
      <point x="923" y="928"/>
      <point x="773" y="992"/>
      <point x="582" y="992" type="curve" smooth="yes"/>
      <point x="445" y="992"/>
      <point x="315" y="959"/>
      <point x="242" y="919" type="curve"/>
      <point x="242" y="919"/>
      <point x="281" y="802"/>
      <point x="282" y="802" type="curve" smooth="yes"/>
      <point x="362" y="841"/>
      <point x="478" y="867"/>
      <point x="585" y="867" type="curve" smooth="yes"/>
      <point x="718" y="867"/>
      <point x="776" y="807"/>
      <point x="776" y="689" type="curve" smooth="yes"/>
      <point x="776" y="579" type="line"/>
      <point x="776" y="579"/>
      <point x="679" y="567"/>
      <point x="678" y="567" type="curve" smooth="yes"/>
      <point x="429" y="531"/>
      <point x="184" y="497"/>
      <point x="184" y="243" type="curve" smooth="yes"/>
      <point x="184" y="62"/>
      <point x="318" y="-22"/>
      <point x="477" y="-22" type="curve" smooth="yes"/>
    </contour>
    <contour>
      <point x="566" y="969" type="move" name="top"/>
    </contour>
    <contour>
      <point x="929" y="9" type="move" name="ogonek"/>
    </contour>
  </outline>
</glyph>
<glyph name="degree" format="1">
  <advance width="816"/>
  <unicode hex="00B0"/>
  <outline>
    <contour>
      <point x="409" y="919" type="curve" smooth="yes"/>
      <point x="257" y="919"/>
      <point x="128" y="1065"/>
      <point x="128" y="1239" type="curve" smooth="yes"/>
      <point x="128" y="1412"/>
      <point x="257" y="1555"/>
      <point x="409" y="1555" type="curve" smooth="yes"/>
      <point x="563" y="1555"/>
      <point x="690" y="1412"/>
      <point x="690" y="1239" type="curve" smooth="yes"/>
      <point x="690" y="1065"/>
      <point x="561" y="919"/>
    </contour>
    <contour>
      <point x="409" y="1430" type="curve" smooth="yes"/>
      <point x="318" y="1430"/>
      <point x="238" y="1347"/>
      <point x="238" y="1239" type="curve" smooth="yes"/>
      <point x="238" y="1131"/>
      <point x="315" y="1046"/>
      <point x="409" y="1046" type="curve" smooth="yes"/>
      <point x="503" y="1046"/>
      <point x="581" y="1131"/>
      <point x="581" y="1239" type="curve" smooth="yes"/>
      <point x="581" y="1347"/>
      <point x="501" y="1430"/>
    </contour>
  </outline>
</glyph>
<glyph name="twosuperior" format="1">
  <advance width="836"/>
  <unicode hex="00B2"/>
  <outline>
    <contour>
      <point x="164" y="641" type="line"/>
      <point x="645" y="641" type="line"/>
      <point x="656" y="761" type="line"/>
      <point x="315" y="761" type="line"/>
      <point x="494" y="948"/>
      <point x="685" y="1135"/>
      <point x="685" y="1318" type="curve" smooth="yes"/>
      <point x="684" y="1486"/>
      <point x="553" y="1551"/>
      <point x="422" y="1551" type="curve" smooth="yes"/>
      <point x="350" y="1551"/>
      <point x="245" y="1528"/>
      <point x="172" y="1477" type="curve"/>
      <point x="172" y="1477"/>
      <point x="219" y="1361"/>
      <point x="219" y="1360" type="curve"/>
      <point x="277" y="1404"/>
      <point x="364" y="1424"/>
      <point x="415" y="1424" type="curve" smooth="yes"/>
      <point x="494" y="1424"/>
      <point x="545" y="1376"/>
      <point x="545" y="1303" type="curve" smooth="yes"/>
      <point x="545" y="1183"/>
      <point x="357" y="991"/>
      <point x="143" y="750" type="curve"/>
    </contour>
  </outline>
</glyph>
<glyph name="threesuperior" format="1">
  <advance width="756"/>
  <unicode hex="00B3"/>
  <outline>
    <contour>
      <point x="218" y="1409"/>
      <point x="288" y="1424"/>
      <point x="352" y="1424" type="curve" smooth="yes"/>
      <point x="409" y="1424"/>
      <point x="489" y="1387"/>
      <point x="489" y="1303" type="curve" smooth="yes"/>
      <point x="489" y="1206"/>
      <point x="405" y="1174"/>
      <point x="304" y="1174" type="curve" smooth="yes"/>
      <point x="260" y="1174" type="line"/>
      <point x="260" y="1057" type="line"/>
      <point x="308" y="1057" type="line" smooth="yes"/>
      <point x="426.755728607" y="1057.0"/>
      <point x="498" y="972"/>
      <point x="498" y="886" type="curve" smooth="yes"/>
      <point x="498" y="797"/>
      <point x="414" y="753"/>
      <point x="349" y="753" type="curve" smooth="yes"/>
      <point x="293" y="753"/>
      <point x="218" y="763"/>
      <point x="158" y="817" type="curve"/>
      <point x="112" y="720" type="line"/>
      <point x="174" y="653"/>
      <point x="266" y="631"/>
      <point x="350" y="631" type="curve" smooth="yes"/>
      <point x="496" y="631"/>
      <point x="629" y="722"/>
      <point x="629" y="891" type="curve" smooth="yes"/>
      <point x="629" y="993"/>
      <point x="561" y="1074"/>
      <point x="462" y="1114" type="curve"/>
      <point x="573" y="1156"/>
      <point x="615" y="1233"/>
      <point x="615" y="1317" type="curve" smooth="yes"/>
      <point x="615" y="1473"/>
      <point x="499" y="1551"/>
      <point x="354" y="1551" type="curve" smooth="yes"/>
      <point x="269" y="1551"/>
      <point x="159" y="1521"/>
      <point x="102" y="1476" type="curve"/>
      <point x="149" y="1360" type="line"/>
    </contour>
  </outline>
</glyph>
<glyph name="acute" format="1">
  <advance width="639"/>
  <unicode hex="00B4"/>
  <outline>
    <contour>
      <point x="567" y="1638" type="line"/>
      <point x="242" y="1250" type="line"/>
      <point x="128" y="1250" type="line"/>
      <point x="314" y="1638" type="line"/>
    </contour>
    <contour>
      <point x="347.5" y="1098" type="line"/>
    </contour>
    <contour>
      <point x="347.5" y="1098" type="line"/>
    </contour>
    <contour>
      <point x="347.5" y="1098" type="line" smooth="yes"/>
    </contour>
    <contour>
      <point x="347.5" y="1098" type="move" name="_top"/>
    </contour>
  </outline>
</glyph>
<glyph name="paragraph" format="1">
  <advance width="1068"/>
  <unicode hex="00B6"/>
  <outline>
    <contour>
      <point x="518" y="-158" type="line"/>
      <point x="393" y="-158" type="line"/>
      <point x="393" y="957" type="line"/>
      <point x="235" y="960"/>
      <point x="57" y="1037"/>
      <point x="57" y="1258" type="curve" smooth="yes"/>
      <point x="57" y="1530"/>
      <point x="312" y="1561"/>
      <point x="561" y="1561" type="curve" smooth="yes"/>
      <point x="937" y="1561" type="line"/>
      <point x="927" y="1430" type="line"/>
      <point x="852" y="1430" type="line"/>
      <point x="852" y="-158" type="line"/>
      <point x="737" y="-158" type="line"/>
      <point x="737" y="1430" type="line"/>
      <point x="518" y="1430" type="line"/>
    </contour>
  </outline>
</glyph>
<glyph name="onesuperior" format="1">
  <advance width="613"/>
  <unicode hex="00B9"/>
  <outline>
    <contour>
      <point x="407" y="650" type="line"/>
      <point x="407" y="1538" type="line"/>
      <point x="285" y="1538" type="line"/>
      <point x="245" y="1506"/>
      <point x="165" y="1455"/>
      <point x="106" y="1424" type="curve"/>
      <point x="136" y="1294" type="line"/>
      <point x="181" y="1317"/>
      <point x="230" y="1344"/>
      <point x="269" y="1369" type="curve"/>
      <point x="269" y="650" type="line"/>
    </contour>
  </outline>
</glyph>
<glyph name="ordmasculine" format="1">
  <advance width="1084"/>
  <unicode hex="00BA"/>
  <outline>
    <contour>
      <point x="987" y="763"/>
      <point x="840" y="992"/>
      <point x="549" y="992" type="curve" smooth="yes"/>
      <point x="261" y="992"/>
      <point x="97" y="760"/>
      <point x="97" y="483" type="curve" smooth="yes"/>
      <point x="97" y="205"/>
      <point x="258" y="-22"/>
      <point x="546" y="-22" type="curve" smooth="yes"/>
      <point x="832" y="-22"/>
      <point x="987" y="216"/>
      <point x="987" y="484" type="curve" smooth="yes"/>
    </contour>
    <contour>
      <point x="836" y="285"/>
      <point x="754" y="100"/>
      <point x="549" y="100" type="curve" smooth="yes"/>
      <point x="340" y="100"/>
      <point x="248" y="285"/>
      <point x="248" y="480" type="curve" smooth="yes"/>
      <point x="248" y="678"/>
      <point x="341" y="870"/>
      <point x="546" y="870" type="curve" smooth="yes"/>
      <point x="760" y="870"/>
      <point x="836" y="688"/>
      <point x="836" y="483" type="curve" smooth="yes"/>
    </contour>
    <contour>
      <point x="543" y="969" type="move" name="top"/>
    </contour>
  </outline>
</glyph>
<glyph name="onequarter" format="1">
  <advance width="1609"/>
  <unicode hex="00BC"/>
  <outline>
    <contour>
      <point x="1208" y="1495" type="line"/>
      <point x="1342" y="1495" type="line"/>
      <point x="279" y="0" type="line"/>
      <point x="130" y="0" type="line"/>
    </contour>
    <contour>
      <point x="1066" y="358" type="line"/>
      <point x="1312" y="358" type="line"/>
      <point x="1312" y="608" type="line" smooth="yes"/>
      <point x="1312" y="660"/>
      <point x="1312" y="688"/>
      <point x="1313" y="716" type="curve"/>
    </contour>
    <contour>
      <point x="1420" y="40" type="line"/>
      <point x="1313" y="40" type="line"/>
      <point x="1313" y="240" type="line"/>
      <point x="923" y="240" type="line"/>
      <point x="923" y="339" type="line"/>
      <point x="1302" y="899" type="line"/>
      <point x="1422" y="899" type="line"/>
      <point x="1422" y="358" type="line"/>
      <point x="1516" y="358" type="line"/>
      <point x="1526" y="240" type="line"/>
      <point x="1420" y="240" type="line"/>
    </contour>
    <component base="onesuperior"/>
  </outline>
</glyph>
<glyph name="onehalf" format="1">
  <advance width="1591"/>
  <unicode hex="00BD"/>
  <outline>
    <contour>
      <point x="1188" y="1495" type="line"/>
      <point x="1322" y="1495" type="line"/>
      <point x="259" y="0" type="line"/>
      <point x="110" y="0" type="line"/>
    </contour>
    <component base="twosuperior" xOffset="803" yOffset="-641"/>
    <component base="onesuperior" yOffset="-42"/>
  </outline>
</glyph>
<glyph name="threequarters" format="1">
  <advance width="1630"/>
  <unicode hex="00BE"/>
  <outline>
    <contour>
      <point x="1338" y="1495" type="line"/>
      <point x="1472" y="1495" type="line"/>
      <point x="409" y="0" type="line"/>
      <point x="260" y="0" type="line"/>
    </contour>
    <component base="foursuperior" xOffset="903" yOffset="-609"/>
    <component base="threesuperior"/>
  </outline>
</glyph>
<glyph name="AE" format="1">
  <advance width="1866"/>
  <unicode hex="00C6"/>
  <outline>
    <contour>
      <point x="954" y="589" type="line"/>
      <point x="511" y="589" type="line"/>
      <point x="900" y="1361" type="line"/>
    </contour>
    <contour>
      <point x="208" y="0" type="line"/>
      <point x="427" y="427" type="line"/>
      <point x="976" y="427" type="line"/>
      <point x="1007" y="0" type="line"/>
      <point x="1812" y="0" type="line"/>
      <point x="1826" y="158" type="line"/>
      <point x="1166" y="158" type="line"/>
      <point x="1124" y="724" type="line"/>
      <point x="1715" y="724" type="line"/>
      <point x="1715" y="882" type="line"/>
      <point x="1104" y="882" type="line"/>
      <point x="1072" y="1337" type="line"/>
      <point x="1687" y="1337" type="line"/>
      <point x="1700" y="1496" type="line"/>
      <point x="800" y="1496" type="line"/>
      <point x="0" y="0" type="line"/>
    </contour>
    <contour>
      <point x="957" y="1489" type="move" name="top"/>
    </contour>
  </outline>
</glyph>
<glyph name="Eth" format="1">
  <advance width="1522"/>
  <unicode hex="00D0"/>
  <outline>
    <contour>
      <point x="29" y="697" type="line"/>
      <point x="29" y="832" type="line"/>
      <point x="566" y="832" type="line"/>
      <point x="566" y="697" type="line"/>
    </contour>
    <component base="D"/>
  </outline>
</glyph>
<glyph name="Eth" format="1">
  <advance width="1522"/>
  <unicode hex="00D0"/>
  <outline>
    <component base="D"/>
    <contour>
      <point x="29" y="697" type="line"/>
      <point x="29" y="832" type="line"/>
      <point x="566" y="832" type="line"/>
      <point x="566" y="697" type="line"/>
    </contour>
  </outline>
</glyph>
<glyph name="multiply" format="1">
  <advance width="1134.0"/>
  <unicode hex="00D7"/>
  <outline>
    <contour>
      <point x="238.0" y="159" type="line"/>
      <point x="145.0" y="257" type="line"/>
      <point x="472.333" y="580.41" type="line"/>
      <point x="145.0" y="906" type="line"/>
      <point x="238.0" y="999" type="line"/>
      <point x="567.0" y="673.942" type="line"/>
      <point x="896.0" y="999" type="line"/>
      <point x="989.0" y="906" type="line"/>
      <point x="661.667" y="580.41" type="line"/>
      <point x="989.0" y="257" type="line"/>
      <point x="896.0" y="159" type="line"/>
      <point x="567.0" y="486.248" type="line"/>
    </contour>
  </outline>
</glyph>
<glyph name="Oslash" format="1">
  <advance width="1717"/>
  <unicode hex="00D8"/>
  <outline>
    <contour>
      <point x="288" y="1123"/>
      <point x="469" y="1373"/>
      <point x="829" y="1373" type="curve" smooth="yes"/>
      <point x="904" y="1373"/>
      <point x="971" y="1362"/>
      <point x="1031" y="1341" type="curve"/>
      <point x="565" y="187" type="line"/>
      <point x="375" y="285"/>
      <point x="288" y="497"/>
      <point x="288" y="746" type="curve" smooth="yes"/>
    </contour>
    <contour>
      <point x="1369" y="402"/>
      <point x="1205" y="129"/>
      <point x="829" y="129" type="curve" smooth="yes"/>
      <point x="763" y="129"/>
      <point x="703" y="137"/>
      <point x="650" y="153" type="curve"/>
      <point x="1117" y="1301" type="line"/>
      <point x="1285" y="1200"/>
      <point x="1369" y="1001"/>
      <point x="1369" y="746" type="curve" smooth="yes"/>
    </contour>
    <contour>
      <point x="1308" y="-23"/>
      <point x="1558" y="308"/>
      <point x="1558" y="746" type="curve" smooth="yes"/>
      <point x="1558" y="1077"/>
      <point x="1423" y="1332"/>
      <point x="1178" y="1451" type="curve"/>
      <point x="1270" y="1677" type="line"/>
      <point x="1180" y="1712" type="line"/>
      <point x="1089" y="1487" type="line"/>
      <point x="1011" y="1512"/>
      <point x="924" y="1525"/>
      <point x="829" y="1525" type="curve" smooth="yes"/>
      <point x="366" y="1525"/>
      <point x="99" y="1211"/>
      <point x="99" y="746" type="curve" smooth="yes"/>
      <point x="99" y="420"/>
      <point x="237" y="154"/>
      <point x="505" y="39" type="curve"/>
      <point x="421" y="-170" type="line"/>
      <point x="505" y="-202" type="line"/>
      <point x="591" y="8" type="line"/>
      <point x="662" y="-12"/>
      <point x="742" y="-23"/>
      <point x="829" y="-23" type="curve" smooth="yes"/>
    </contour>
    <contour>
      <point x="859" y="1489" type="move" name="top"/>
    </contour>
  </outline>
</glyph>
<glyph name="ae" format="1">
  <advance width="1674"/>
  <unicode hex="00E6"/>
  <outline>
    <contour>
      <point x="79.5474" y="300.068" type="curve" smooth="yes"/>
      <point x="79.5474" y="563.695276829"/>
      <point x="348.214587188" y="595.168579299"/>
      <point x="651.356307869" y="612.557972096" type="curve" smooth="yes"/>
      <point x="672.101110646" y="613.747974987"/>
      <point x="693.007358793" y="614.872022467"/>
      <point x="714" y="616" type="curve"/>
      <point x="714" y="781" type="line" smooth="yes"/>
      <point x="714" y="914"/>
      <point x="665" y="976"/>
      <point x="524" y="976" type="curve" smooth="yes"/>
      <point x="387" y="976"/>
      <point x="251" y="938"/>
      <point x="168" y="894" type="curve"/>
      <point x="132" y="1032" type="line"/>
      <point x="212" y="1078"/>
      <point x="370" y="1124"/>
      <point x="520" y="1124" type="curve" smooth="yes"/>
      <point x="679" y="1124"/>
      <point x="807" y="1062"/>
      <point x="837" y="932" type="curve"/>
      <point x="910" y="1063"/>
      <point x="1047" y="1124"/>
      <point x="1192" y="1124" type="curve" smooth="yes"/>
      <point x="1465" y="1124"/>
      <point x="1566" y="909"/>
      <point x="1566" y="684" type="curve" smooth="yes"/>
      <point x="1566" y="588"/>
      <point x="1540" y="542"/>
      <point x="1379" y="534" type="curve" smooth="yes"/>
      <point x="882" y="509" type="line"/>
      <point x="898" y="275"/>
      <point x="981" y="119"/>
      <point x="1194" y="119" type="curve" smooth="yes"/>
      <point x="1323" y="119"/>
      <point x="1447" y="180"/>
      <point x="1517" y="229" type="curve"/>
      <point x="1569" y="108" type="line"/>
      <point x="1488" y="38"/>
      <point x="1359" y="-25"/>
      <point x="1183" y="-25" type="curve" smooth="yes"/>
      <point x="1039" y="-25"/>
      <point x="936" y="24"/>
      <point x="856" y="112" type="curve"/>
      <point x="737.934" y="39.3443"/>
      <point x="560.007" y="-25.543"/>
      <point x="404.236" y="-25.543" type="curve" smooth="yes"/>
      <point x="230.352" y="-25.543"/>
      <point x="79.5474" y="58.9521"/>
    </contour>
    <contour>
      <point x="415.886" y="113.248" type="curve" smooth="yes"/>
      <point x="526.954" y="113.248"/>
      <point x="672.566" y="170.036"/>
      <point x="787" y="208" type="curve"/>
      <point x="742" y="290"/>
      <point x="717" y="386"/>
      <point x="711" y="499" type="curve"/>
      <point x="688.51427425" y="497.776667326"/>
      <point x="667.060149991" y="496.407419048"/>
      <point x="646.594731324" y="494.886917675" type="curve" smooth="yes"/>
      <point x="325.499377723" y="471.030776052"/>
      <point x="247.789" y="409.94137585"/>
      <point x="247.789" y="291.004" type="curve" smooth="yes"/>
      <point x="247.789" y="158.102"/>
      <point x="319.473" y="113.248"/>
    </contour>
    <contour>
      <point x="1189" y="984" type="curve" smooth="yes"/>
      <point x="988" y="984"/>
      <point x="899" y="821"/>
      <point x="888" y="615" type="curve"/>
      <point x="1404" y="644" type="line"/>
      <point x="1404.0" y="647.398760352"/>
      <point x="1403.98619459" y="650.770328231"/>
      <point x="1403.95853234" y="654.114779267" type="curve" smooth="yes"/>
      <point x="1402.07354773" y="882.01522695"/>
      <point x="1335.84504131" y="984.0"/>
    </contour>
    <contour>
      <point x="837" y="1098" type="move"/>
    </contour>
    <contour>
      <point x="837" y="1098" type="move"/>
    </contour>
    <contour>
      <point x="837" y="1098" type="move"/>
    </contour>
    <contour>
      <point x="837" y="1098" type="move" name="top"/>
    </contour>
  </outline>
</glyph>
<glyph name="eth" format="1">
  <advance width="1184"/>
  <unicode hex="00F0"/>
  <outline>
    <contour>
      <point x="685" y="972"/>
      <point x="774.824976786" y="920.602648684"/>
      <point x="834" y="877" type="curve"/>
      <point x="788" y="964"/>
      <point x="703" y="1086"/>
      <point x="544" y="1247" type="curve"/>
      <point x="292" y="1143" type="line"/>
      <point x="230" y="1257" type="line"/>
      <point x="453" y="1344" type="line"/>
      <point x="288" y="1510" type="line"/>
      <point x="506" y="1510" type="line"/>
      <point x="605" y="1411" type="line"/>
      <point x="856" y="1512" type="line"/>
      <point x="917" y="1403" type="line"/>
      <point x="697" y="1312" type="line"/>
      <point x="844" y="1141"/>
      <point x="936" y="1014"/>
      <point x="1005" y="884" type="curve" smooth="yes"/>
      <point x="1075" y="755"/>
      <point x="1107" y="633"/>
      <point x="1107" y="492" type="curve" smooth="yes"/>
      <point x="1107" y="199"/>
      <point x="933" y="-25"/>
      <point x="593" y="-25" type="curve" smooth="yes"/>
      <point x="261" y="-25"/>
      <point x="77" y="212"/>
      <point x="77" y="486" type="curve" smooth="yes"/>
      <point x="77" y="772"/>
      <point x="287" y="972"/>
      <point x="549" y="972" type="curve" smooth="yes"/>
    </contour>
    <contour>
      <point x="381" y="833"/>
      <point x="259" y="675"/>
      <point x="259" y="485" type="curve" smooth="yes"/>
      <point x="259" y="294"/>
      <point x="372" y="114"/>
      <point x="599" y="114" type="curve" smooth="yes"/>
      <point x="815" y="114"/>
      <point x="935" y="271"/>
      <point x="935" y="472" type="curve" smooth="yes"/>
      <point x="935" y="653"/>
      <point x="815" y="833"/>
      <point x="593" y="833" type="curve" smooth="yes"/>
    </contour>
  </outline>
</glyph>
<glyph name="oslash" format="1">
  <advance width="1179"/>
  <unicode hex="00F8"/>
  <outline>
    <contour>
      <point x="928" y="547" type="curve" smooth="yes"/>
      <point x="928" y="780"/>
      <point x="841" y="986"/>
      <point x="594" y="986" type="curve" smooth="yes"/>
      <point x="358" y="986"/>
      <point x="250" y="768"/>
      <point x="250" y="544" type="curve" smooth="yes"/>
      <point x="250" y="323"/>
      <point x="357" y="113"/>
      <point x="597" y="113" type="curve" smooth="yes"/>
      <point x="834" y="113"/>
      <point x="928" y="323"/>
    </contour>
    <contour>
      <point x="1102" y="549" type="curve" smooth="yes"/>
      <point x="1102" y="245"/>
      <point x="923" y="-25"/>
      <point x="594" y="-25" type="curve" smooth="yes"/>
      <point x="262" y="-25"/>
      <point x="77" y="232"/>
      <point x="77" y="547" type="curve" smooth="yes"/>
      <point x="77" y="861"/>
      <point x="265" y="1124"/>
      <point x="597" y="1124" type="curve" smooth="yes"/>
      <point x="933" y="1124"/>
      <point x="1102" y="865"/>
    </contour>
    <contour>
      <point x="590" y="1098" type="line"/>
    </contour>
    <contour>
      <point x="590" y="1098" type="line"/>
    </contour>
    <contour>
      <point x="602" y="997" type="line"/>
    </contour>
    <contour>
      <point x="602" y="997" type="line"/>
    </contour>
    <contour>
      <point x="894" y="1367" type="line"/>
      <point x="971" y="1336" type="line"/>
      <point x="286" y="-275" type="line"/>
      <point x="215" y="-237" type="line"/>
    </contour>
    <contour>
      <point x="595" y="1098" type="line"/>
    </contour>
    <contour>
      <point x="595" y="1098" type="line"/>
    </contour>
    <contour>
      <point x="595" y="1098" type="line" smooth="yes"/>
    </contour>
    <contour>
      <point x="595" y="1098" type="move" name="top"/>
    </contour>
  </outline>
</glyph>
<glyph name="thorn" format="1">
  <advance width="1205"/>
  <unicode hex="00FE"/>
  <outline>
    <contour>
      <point x="624" y="113" type="curve" smooth="yes"/>
      <point x="385" y="113"/>
      <point x="290" y="320"/>
      <point x="290" y="551" type="curve" smooth="yes"/>
      <point x="290" y="781"/>
      <point x="405" y="986"/>
      <point x="631" y="986" type="curve" smooth="yes"/>
      <point x="860" y="986"/>
      <point x="926" y="743"/>
      <point x="926" y="551" type="curve" smooth="yes"/>
      <point x="926" y="360"/>
      <point x="858" y="113"/>
    </contour>
    <contour>
      <point x="292" y="162" type="line"/>
      <point x="367" y="34"/>
      <point x="491" y="-25"/>
      <point x="643" y="-25" type="curve"/>
      <point x="951" y="-25"/>
      <point x="1099" y="268"/>
      <point x="1099" y="560" type="curve" smooth="yes"/>
      <point x="1099" y="879"/>
      <point x="919" y="1122"/>
      <point x="643" y="1124" type="curve"/>
      <point x="494" y="1124"/>
      <point x="378" y="1060"/>
      <point x="292" y="933" type="curve"/>
      <point x="292" y="1510" type="line"/>
      <point x="124" y="1496" type="line"/>
      <point x="124.0" y="1261.84091903" type="line"/>
      <point x="124" y="-459" type="line"/>
      <point x="292" y="-437" type="line"/>
    </contour>
  </outline>
</glyph>
<glyph name="gcedilla" format="1">
  <advance width="1268"/>
  <unicode hex="0123"/>
  <outline>
    <contour>
      <point x="793" y="1749" type="line"/>
      <point x="683" y="1250" type="line"/>
      <point x="488" y="1250" type="line"/>
      <point x="653" y="1749" type="line"/>
    </contour>
    <component base="g"/>
  </outline>
</glyph>
<glyph name="hbar" format="1">
  <advance width="1115"/>
  <unicode hex="0127"/>
  <outline>
    <component base="h"/>
    <contour>
      <point x="558" y="1270" type="line"/>
      <point x="21" y="1270" type="line"/>
      <point x="21" y="1386" type="line"/>
      <point x="558" y="1386" type="line"/>
    </contour>
  </outline>
</glyph>
<glyph name="IJ" format="1">
  <advance width="1464"/>
  <unicode hex="0132"/>
  <outline>
    <contour>
      <point x="1133" y="409" type="curve" smooth="yes"/>
      <point x="1133" y="1557" type="line"/>
      <point x="1309" y="1557" type="line"/>
      <point x="1309" y="461" type="line" smooth="yes"/>
      <point x="1309" y="133"/>
      <point x="1277" y="-28"/>
      <point x="887" y="-28" type="curve" smooth="yes"/>
      <point x="854" y="-28" type="line"/>
      <point x="854" y="139" type="line"/>
      <point x="907" y="139" type="line"/>
      <point x="1121" y="144"/>
      <point x="1133" y="251"/>
    </contour>
    <contour>
      <point x="334" y="1557" type="line"/>
      <point x="334" y="0" type="line"/>
      <point x="155" y="0" type="line"/>
      <point x="155" y="1557" type="line"/>
    </contour>
  </outline>
</glyph>
<glyph name="ij" format="1">
  <advance width="976"/>
  <unicode hex="0133"/>
  <outline>
    <contour>
      <point x="817" y="1098" type="line"/>
      <point x="817" y="180" type="line" smooth="yes"/>
      <point x="817" y="-146"/>
      <point x="793" y="-264"/>
      <point x="445" y="-308" type="curve"/>
      <point x="437" y="-310" type="line"/>
      <point x="437" y="-141" type="line"/>
      <point x="445" y="-141" type="line"/>
      <point x="644" y="-117"/>
      <point x="647" y="-30"/>
      <point x="647" y="126" type="curve" smooth="yes"/>
      <point x="647" y="1098" type="line"/>
    </contour>
    <contour>
      <point x="325" y="1098" type="line"/>
      <point x="325" y="0" type="line"/>
      <point x="155" y="0" type="line"/>
      <point x="155" y="1098" type="line"/>
    </contour>
    <contour>
      <point x="325" y="1557" type="line"/>
      <point x="325" y="1359" type="line"/>
      <point x="155" y="1359" type="line"/>
      <point x="155" y="1557" type="line"/>
    </contour>
    <contour>
      <point x="817" y="1557" type="line"/>
      <point x="817" y="1359" type="line"/>
      <point x="647" y="1359" type="line"/>
      <point x="647" y="1557" type="line"/>
    </contour>
  </outline>
</glyph>
<glyph name="Lslash" format="1">
  <advance width="960"/>
  <unicode hex="0141"/>
  <outline>
    <contour>
      <point x="0" y="527" type="line"/>
      <point x="0" y="675" type="line"/>
      <point x="675" y="1045" type="line"/>
      <point x="675" y="889" type="line"/>
    </contour>
    <component base="L"/>
  </outline>
</glyph>
<glyph name="Lslash" format="1">
  <advance width="960"/>
  <unicode hex="0141"/>
  <outline>
    <component base="L"/>
    <contour>
      <point x="0" y="527" type="line"/>
      <point x="0" y="675" type="line"/>
      <point x="675" y="1045" type="line"/>
      <point x="675" y="889" type="line"/>
    </contour>
  </outline>
</glyph>
<glyph name="lslash" format="1">
  <advance width="589"/>
  <unicode hex="0142"/>
  <outline>
    <component base="l"/>
    <contour>
      <point x="487" y="985" type="line"/>
      <point x="487" y="839" type="line"/>
      <point x="31" y="486" type="line"/>
      <point x="31" y="631" type="line"/>
    </contour>
  </outline>
</glyph>
<glyph name="OE" format="1">
  <advance width="1980"/>
  <unicode hex="0152"/>
  <outline>
    <contour>
      <point x="1148.0" y="1259.0" type="line"/>
      <point x="1071.0" y="1322.0"/>
      <point x="955.0" y="1373.0"/>
      <point x="815.0" y="1373.0" type="curve" smooth="yes"/>
      <point x="491.0" y="1373.0"/>
      <point x="299.0" y="1121.0"/>
      <point x="291.0" y="773.0" type="curve"/>
      <point x="291.0" y="418.0"/>
      <point x="433" y="133"/>
      <point x="824" y="129" type="curve"/>
      <point x="953" y="129"/>
      <point x="1100.0" y="193.0"/>
      <point x="1148.0" y="222.0" type="curve"/>
    </contour>
    <contour>
      <point x="800.0" y="1524.0" type="curve" smooth="yes"/>
      <point x="948.0" y="1524.0"/>
      <point x="1073.0" y="1478.0"/>
      <point x="1148.0" y="1413.0" type="curve"/>
      <point x="1148.0" y="1495.0" type="line"/>
      <point x="1874.0" y="1495.0" type="line"/>
      <point x="1857.0" y="1341.0" type="line"/>
      <point x="1325.0" y="1341.0" type="line"/>
      <point x="1325.0" y="845.0" type="line"/>
      <point x="1821.0" y="845.0" type="line"/>
      <point x="1821.0" y="692.0" type="line"/>
      <point x="1325.0" y="692.0" type="line"/>
      <point x="1325.0" y="156.0" type="line"/>
      <point x="1898.0" y="156.0" type="line"/>
      <point x="1883.0" y="0.0" type="line"/>
      <point x="1148.0" y="0.0" type="line"/>
      <point x="1148" y="82" type="line"/>
      <point x="1105" y="36"/>
      <point x="940" y="-23"/>
      <point x="823" y="-23" type="curve" smooth="yes"/>
      <point x="348" y="-23"/>
      <point x="101.0" y="299.0"/>
      <point x="101.0" y="771.0" type="curve"/>
      <point x="111.0" y="1207.0"/>
      <point x="398.0" y="1524.0"/>
    </contour>
    <contour>
      <point x="990.0" y="1489.0" type="move" name="top"/>
    </contour>
  </outline>
</glyph>
<glyph name="Tbar" format="1">
  <advance width="1050"/>
  <unicode hex="0166"/>
  <outline>
    <contour>
      <point x="256" y="531" type="line"/>
      <point x="256" y="654" type="line"/>
      <point x="764" y="654" type="line"/>
      <point x="764" y="531" type="line"/>
    </contour>
    <component base="T"/>
  </outline>
</glyph>
<glyph name="Tbar" format="1">
  <advance width="1050"/>
  <unicode hex="0166"/>
  <outline>
    <component base="T"/>
    <contour>
      <point x="256" y="531" type="line"/>
      <point x="256" y="654" type="line"/>
      <point x="764" y="654" type="line"/>
      <point x="764" y="531" type="line"/>
    </contour>
  </outline>
</glyph>
<glyph name="tbar" format="1">
  <advance width="677"/>
  <unicode hex="0167"/>
  <outline>
    <component base="t"/>
    <contour>
      <point x="38" y="638" type="line"/>
      <point x="38" y="764" type="line"/>
      <point x="570" y="764" type="line"/>
      <point x="570" y="638" type="line"/>
    </contour>
  </outline>
</glyph>
<glyph name="circumflex" format="1">
  <advance width="800"/>
  <unicode hex="02C6"/>
  <outline>
    <contour>
      <point x="108" y="1251" type="line"/>
      <point x="295" y="1639" type="line"/>
      <point x="508" y="1639" type="line"/>
      <point x="695" y="1251" type="line"/>
      <point x="561" y="1251" type="line"/>
      <point x="400" y="1523" type="line"/>
      <point x="239" y="1251" type="line"/>
    </contour>
    <contour>
      <point x="401.5" y="1098" type="line"/>
    </contour>
    <contour>
      <point x="401.5" y="1098" type="line"/>
    </contour>
    <contour>
      <point x="401.5" y="1098" type="line" smooth="yes"/>
    </contour>
    <contour>
      <point x="401.5" y="1098" type="move" name="_top"/>
    </contour>
  </outline>
</glyph>
<glyph name="Alpha" format="1">
  <advance width="1333"/>
  <unicode hex="0391"/>
  <outline>
    <contour>
      <point x="667" y="1489" type="line"/>
    </contour>
    <contour>
      <point x="667" y="1489" type="line" smooth="yes"/>
    </contour>
    <component base="A"/>
    <contour>
      <point x="667" y="1489" type="move" name="top"/>
    </contour>
  </outline>
</glyph>
<glyph name="Phi" format="1">
  <advance width="1661"/>
  <unicode hex="03A6"/>
  <outline>
    <contour>
      <point x="917" y="0" type="line"/>
      <point x="740" y="0" type="line"/>
      <point x="740" y="170" type="line"/>
      <point x="769" y="168"/>
      <point x="800" y="167"/>
      <point x="831" y="167" type="curve" smooth="yes"/>
      <point x="861" y="167"/>
      <point x="889" y="168"/>
      <point x="917" y="170" type="curve"/>
    </contour>
    <contour>
      <point x="917" y="170" type="curve"/>
      <point x="917" y="323" type="line"/>
      <point x="1232" y="352"/>
      <point x="1371" y="540"/>
      <point x="1371" y="772" type="curve" smooth="yes"/>
      <point x="1371" y="1010"/>
      <point x="1221" y="1179"/>
      <point x="917" y="1205" type="curve"/>
      <point x="917" y="1358" type="line"/>
      <point x="1327" y="1330"/>
      <point x="1560" y="1101"/>
      <point x="1560" y="772" type="curve" smooth="yes"/>
      <point x="1560" y="449"/>
      <point x="1340" y="199"/>
    </contour>
    <contour>
      <point x="917" y="1358" type="line"/>
      <point x="889" y="1360"/>
      <point x="860" y="1361"/>
      <point x="831" y="1361" type="curve" smooth="yes"/>
      <point x="800" y="1361"/>
      <point x="769" y="1360"/>
      <point x="740" y="1358" type="curve"/>
      <point x="740" y="1496" type="line"/>
      <point x="917" y="1496" type="line"/>
    </contour>
    <contour>
      <point x="917" y="1205" type="curve"/>
      <point x="917" y="323" type="line"/>
      <point x="890" y="321"/>
      <point x="861" y="319"/>
      <point x="831" y="319" type="curve" smooth="yes"/>
      <point x="799" y="319"/>
      <point x="769" y="320"/>
      <point x="740" y="323" type="curve"/>
      <point x="740" y="1205" type="line"/>
      <point x="769" y="1208"/>
      <point x="799" y="1209"/>
      <point x="831" y="1209" type="curve" smooth="yes"/>
      <point x="861" y="1209"/>
      <point x="890" y="1207"/>
    </contour>
    <contour>
      <point x="740" y="1358" type="curve"/>
      <point x="740" y="1205" type="line"/>
      <point x="441" y="1178"/>
      <point x="290" y="1012"/>
      <point x="290" y="772" type="curve" smooth="yes"/>
      <point x="290" y="541"/>
      <point x="428" y="353"/>
      <point x="740" y="323" type="curve"/>
      <point x="740" y="170" type="line"/>
      <point x="320" y="201"/>
      <point x="101" y="450"/>
      <point x="101" y="772" type="curve" smooth="yes"/>
      <point x="101" y="1100"/>
      <point x="333" y="1329"/>
    </contour>
  </outline>
</glyph>
<glyph name="Omega" format="1">
  <advance width="1661"/>
  <unicode hex="03A9"/>
  <outline>
    <contour>
      <point x="20" y="1489" type="line"/>
    </contour>
    <contour>
      <point x="20" y="1489" type="line" smooth="yes"/>
    </contour>
    <component base="O"/>
    <contour>
      <point x="20" y="1489" type="move" name="topleft"/>
    </contour>
  </outline>
</glyph>
<glyph name="omicron" format="1">
  <advance width="1189"/>
  <unicode hex="03BF"/>
  <outline>
    <contour>
      <point x="595" y="1098" type="line"/>
    </contour>
    <contour>
      <point x="595" y="1098" type="line" smooth="yes"/>
    </contour>
    <component base="o"/>
    <contour>
      <point x="595" y="1098" type="move" name="top"/>
    </contour>
  </outline>
</glyph>
<glyph name="uni0415" format="1">
  <advance width="1140"/>
  <unicode hex="0415"/>
  <outline>
    <contour>
      <point x="987" y="845" type="line"/>
      <point x="987" y="692" type="line"/>
      <point x="324" y="692" type="line"/>
      <point x="324" y="155" type="line"/>
      <point x="1058" y="155" type="line"/>
      <point x="1043" y="0" type="line"/>
      <point x="147" y="0" type="line"/>
      <point x="147" y="1496" type="line"/>
      <point x="1029" y="1496" type="line"/>
      <point x="1015" y="1341" type="line"/>
      <point x="324" y="1341" type="line"/>
      <point x="324" y="845" type="line"/>
    </contour>
  </outline>
</glyph>
<glyph name="afii10026" format="1">
  <advance width="1489"/>
  <unicode hex="0418"/>
  <outline>
    <contour>
      <point x="147" y="0" type="line"/>
      <point x="147" y="1497" type="line"/>
      <point x="310" y="1497" type="line"/>
      <point x="310" y="261" type="line"/>
      <point x="584.133" y="678.534"/>
      <point x="870.034" y="1084.3"/>
      <point x="1149" y="1497" type="curve"/>
      <point x="1342" y="1497" type="line"/>
      <point x="1342" y="0" type="line"/>
      <point x="1181" y="0" type="line"/>
      <point x="1181" y="1230" type="line"/>
      <point x="1089" y="1087" type="line"/>
      <point x="346" y="0" type="line"/>
    </contour>
  </outline>
</glyph>
<glyph name="uni0420" format="1">
  <advance width="1140"/>
  <unicode hex="0420"/>
  <outline>
    <contour>
      <point x="645" y="779" type="line" smooth="yes"/>
      <point x="836" y="779"/>
      <point x="929" y="889"/>
      <point x="929" y="1066" type="curve" smooth="yes"/>
      <point x="929" y="1243"/>
      <point x="830" y="1341"/>
      <point x="645" y="1341" type="curve" smooth="yes"/>
      <point x="324" y="1341" type="line"/>
      <point x="324" y="779" type="line"/>
    </contour>
    <contour>
      <point x="324" y="626" type="line"/>
      <point x="324" y="0" type="line"/>
      <point x="147" y="0" type="line"/>
      <point x="147" y="1496" type="line"/>
      <point x="641" y="1496" type="line" smooth="yes"/>
      <point x="925" y="1496"/>
      <point x="1109" y="1358"/>
      <point x="1109" y="1069" type="curve" smooth="yes"/>
      <point x="1109" y="754"/>
      <point x="917" y="626"/>
      <point x="641" y="626" type="curve" smooth="yes"/>
    </contour>
  </outline>
</glyph>
<glyph name="uni0428" format="1">
  <advance width="1671"/>
  <unicode hex="0428"/>
  <outline>
    <contour>
      <point x="324" y="155" type="line"/>
      <point x="746" y="155" type="line"/>
      <point x="746" y="1496" type="line"/>
      <point x="923" y="1496" type="line"/>
      <point x="923" y="155" type="line"/>
      <point x="1347" y="155" type="line"/>
      <point x="1347" y="1496" type="line"/>
      <point x="1524" y="1496" type="line"/>
      <point x="1524" y="0" type="line"/>
      <point x="147" y="0" type="line"/>
      <point x="147" y="1496" type="line"/>
      <point x="324" y="1496" type="line"/>
    </contour>
  </outline>
</glyph>
<glyph name="uni042C" format="1">
  <advance width="1144"/>
  <unicode hex="042C"/>
  <outline>
    <contour>
      <point x="324" y="696" type="line"/>
      <point x="324" y="155" type="line"/>
      <point x="487" y="155" type="line" smooth="yes"/>
      <point x="740" y="155"/>
      <point x="858" y="255"/>
      <point x="858" y="431" type="curve" smooth="yes"/>
      <point x="858" y="600"/>
      <point x="743" y="696"/>
      <point x="480" y="696" type="curve" smooth="yes"/>
    </contour>
    <contour>
      <point x="324" y="1496" type="line"/>
      <point x="324" y="849" type="line"/>
      <point x="460" y="849" type="line" smooth="yes"/>
      <point x="801" y="849"/>
      <point x="1025" y="706"/>
      <point x="1025" y="435" type="curve" smooth="yes"/>
      <point x="1025" y="173"/>
      <point x="841" y="0"/>
      <point x="467" y="0" type="curve" smooth="yes"/>
      <point x="147" y="0" type="line"/>
      <point x="147" y="1496" type="line"/>
    </contour>
  </outline>
</glyph>
<glyph name="uni0448" format="1">
  <advance width="1322"/>
  <unicode hex="0448"/>
  <outline>
    <contour>
      <point x="283" y="144" type="line"/>
      <point x="577" y="144" type="line"/>
      <point x="577" y="1098" type="line"/>
      <point x="745" y="1098" type="line"/>
      <point x="745" y="144" type="line"/>
      <point x="1039" y="144" type="line"/>
      <point x="1039" y="1098" type="line"/>
      <point x="1207" y="1098" type="line"/>
      <point x="1207" y="0" type="line"/>
      <point x="115" y="0" type="line"/>
      <point x="115" y="1098" type="line"/>
      <point x="283" y="1098" type="line"/>
    </contour>
  </outline>
</glyph>
<glyph name="uni0456" format="1">
  <advance width="489"/>
  <unicode hex="0456"/>
  <outline>
    <contour>
      <point x="329" y="1490" type="line"/>
      <point x="329" y="1292" type="line"/>
      <point x="160" y="1292" type="line"/>
      <point x="160" y="1490" type="line"/>
    </contour>
    <contour>
      <point x="329" y="1098" type="line"/>
      <point x="329" y="0" type="line"/>
      <point x="160" y="0" type="line"/>
      <point x="160" y="1098" type="line"/>
    </contour>
  </outline>
</glyph>
<glyph name="afii10108" format="1">
  <advance width="1113"/>
  <unicode hex="045B"/>
  <outline>
    <contour>
      <point x="283" y="495" type="curve"/>
      <point x="283" y="0" type="line"/>
      <point x="115" y="0" type="line"/>
      <point x="115" y="1099" type="line"/>
      <point x="21" y="1099" type="line"/>
      <point x="21" y="1215" type="line"/>
      <point x="115" y="1215" type="line"/>
      <point x="115" y="1510" type="line"/>
      <point x="283" y="1510" type="line"/>
      <point x="283" y="1215" type="line"/>
      <point x="698" y="1215" type="line"/>
      <point x="698" y="1099" type="line"/>
      <point x="283" y="1099" type="line"/>
      <point x="283" y="713" type="line"/>
      <point x="370.7" y="824"/>
      <point x="485.997" y="892"/>
      <point x="636" y="892" type="curve" smooth="yes"/>
      <point x="892.59" y="892"/>
      <point x="1008" y="733"/>
      <point x="1008" y="445" type="curve" smooth="yes"/>
      <point x="1008" y="0" type="line"/>
      <point x="840" y="0" type="line"/>
      <point x="840" y="368" type="line" smooth="yes"/>
      <point x="840" y="616"/>
      <point x="807" y="739"/>
      <point x="620" y="739" type="curve" smooth="yes"/>
      <point x="449" y="739"/>
      <point x="310" y="599"/>
    </contour>
  </outline>
</glyph>
<glyph name="quoteleft" format="1">
  <advance width="510"/>
  <unicode hex="2018"/>
  <outline>
    <contour>
      <point x="382" y="1574" type="line"/>
      <point x="291" y="1102" type="line"/>
      <point x="129" y="1102" type="line"/>
      <point x="265" y="1574" type="line"/>
    </contour>
  </outline>
</glyph>
<glyph name="quotedblbase" format="1">
  <advance width="819"/>
  <unicode hex="201E"/>
  <outline>
    <contour>
      <point x="441" y="-256" type="line"/>
      <point x="532" y="216" type="line"/>
      <point x="694" y="216" type="line"/>
      <point x="559" y="-256" type="line"/>
    </contour>
    <contour>
      <point x="126" y="-256" type="line"/>
      <point x="216" y="216" type="line"/>
      <point x="377" y="216" type="line"/>
      <point x="244" y="-256" type="line"/>
    </contour>
  </outline>
</glyph>
<glyph name="dagger" format="1">
  <advance width="877"/>
  <unicode hex="2020"/>
  <outline>
    <contour>
      <point x="372" y="121" type="line"/>
      <point x="372" y="990" type="line"/>
      <point x="77" y="990" type="line"/>
      <point x="77" y="1098" type="line"/>
      <point x="372" y="1098" type="line"/>
      <point x="372" y="1495" type="line"/>
      <point x="502" y="1495" type="line"/>
      <point x="502" y="1098" type="line"/>
      <point x="800" y="1098" type="line"/>
      <point x="800" y="990" type="line"/>
      <point x="502" y="990" type="line"/>
      <point x="502" y="121" type="line"/>
    </contour>
  </outline>
</glyph>
<glyph name="daggerdbl" format="1">
  <advance width="950"/>
  <unicode hex="2021"/>
  <outline>
    <contour>
      <point x="505" y="121" type="line"/>
      <point x="505" y="518" type="line"/>
      <point x="800" y="518" type="line"/>
      <point x="800" y="626" type="line"/>
      <point x="505" y="626" type="line"/>
      <point x="505" y="990" type="line"/>
      <point x="803" y="990" type="line"/>
      <point x="803" y="1098" type="line"/>
      <point x="505" y="1098" type="line"/>
      <point x="505" y="1495" type="line"/>
      <point x="375" y="1495" type="line"/>
      <point x="375" y="1098" type="line"/>
      <point x="80" y="1098" type="line"/>
      <point x="80" y="990" type="line"/>
      <point x="375" y="990" type="line"/>
      <point x="375" y="626" type="line"/>
      <point x="77" y="626" type="line"/>
      <point x="77" y="518" type="line"/>
      <point x="375" y="518" type="line"/>
      <point x="375" y="121" type="line"/>
    </contour>
  </outline>
</glyph>
<glyph name="bullet" format="1">
  <advance width="868"/>
  <unicode hex="2022"/>
  <outline>
    <contour>
      <point x="731" y="746" type="curve" smooth="yes"/>
      <point x="731" y="562"/>
      <point x="597" y="441"/>
      <point x="436" y="441" type="curve" smooth="yes"/>
      <point x="270" y="441"/>
      <point x="137" y="567"/>
      <point x="137" y="747" type="curve" smooth="yes"/>
      <point x="137" y="931"/>
      <point x="278" y="1061"/>
      <point x="436" y="1061" type="curve" smooth="yes"/>
      <point x="597" y="1061"/>
      <point x="731" y="927"/>
    </contour>
  </outline>
</glyph>
<glyph name="foursuperior" format="1">
  <advance width="756"/>
  <unicode hex="2074"/>
  <outline>
    <contour>
      <point x="184" y="934" type="line"/>
      <point x="394.0" y="934.0" type="line"/>
      <point x="394.0" y="934.0"/>
      <point x="394" y="1286"/>
      <point x="394" y="1286" type="curve"/>
    </contour>
    <contour>
      <point x="532.0" y="608.0" type="line"/>
      <point x="394.0" y="608.0" type="line"/>
      <point x="394" y="821" type="line"/>
      <point x="43" y="821" type="line"/>
      <point x="43" y="941" type="line"/>
      <point x="384.0" y="1496.0" type="line"/>
      <point x="532.0" y="1496.0" type="line"/>
      <point x="532.0" y="934.0" type="line"/>
      <point x="626.0" y="934.0" type="line"/>
      <point x="636" y="821" type="line"/>
      <point x="532" y="821" type="line"/>
    </contour>
  </outline>
</glyph>
<glyph name="Euro" format="1">
  <advance width="1194"/>
  <unicode hex="20AC"/>
  <outline>
    <contour>
      <point x="84" y="580" type="line"/>
      <point x="101" y="683" type="line"/>
      <point x="193" y="683" type="line"/>
      <point x="192" y="699"/>
      <point x="191" y="715"/>
      <point x="191" y="731" type="curve" smooth="yes"/>
      <point x="191" y="769"/>
      <point x="194" y="808"/>
      <point x="196" y="845" type="curve"/>
      <point x="83" y="845" type="line"/>
      <point x="102" y="957" type="line"/>
      <point x="212" y="957" type="line"/>
      <point x="263" y="1288"/>
      <point x="446" y="1524"/>
      <point x="774" y="1524" type="curve" smooth="yes"/>
      <point x="898" y="1524"/>
      <point x="990" y="1494"/>
      <point x="1066" y="1429" type="curve"/>
      <point x="1065" y="1249" type="line"/>
      <point x="998" y="1322"/>
      <point x="905" y="1369"/>
      <point x="796" y="1369" type="curve" smooth="yes"/>
      <point x="568" y="1369"/>
      <point x="444" y="1203"/>
      <point x="403" y="957" type="curve"/>
      <point x="961" y="957" type="line"/>
      <point x="944" y="845" type="line"/>
      <point x="385" y="845" type="line"/>
      <point x="380" y="796"/>
      <point x="382" y="684"/>
      <point x="380" y="683" type="curve"/>
      <point x="929" y="683" type="line"/>
      <point x="919" y="580" type="line"/>
      <point x="397" y="580" type="line"/>
      <point x="425" y="345"/>
      <point x="542" y="135"/>
      <point x="778" y="135" type="curve" smooth="yes"/>
      <point x="874" y="135"/>
      <point x="970" y="169"/>
      <point x="1066" y="244" type="curve"/>
      <point x="1065" y="69" type="line"/>
      <point x="977" y="5"/>
      <point x="878" y="-22"/>
      <point x="759" y="-22" type="curve" smooth="yes"/>
      <point x="411" y="-22"/>
      <point x="248" y="287"/>
      <point x="205" y="580" type="curve"/>
    </contour>
  </outline>
</glyph>
<glyph name="product" format="1">
  <advance width="1463"/>
  <unicode hex="220F"/>
  <outline>
    <contour>
      <point x="1139" y="1342" type="line"/>
      <point x="324" y="1342" type="line"/>
      <point x="324" y="0" type="line"/>
      <point x="147" y="0" type="line"/>
      <point x="147" y="1496" type="line"/>
      <point x="1316" y="1496" type="line"/>
      <point x="1316" y="0" type="line"/>
      <point x="1139" y="0" type="line"/>
    </contour>
  </outline>
</glyph>
<glyph name="summation" format="1">
  <advance width="1064"/>
  <unicode hex="2211"/>
  <outline>
    <contour>
      <point x="1013" y="161" type="line"/>
      <point x="1000" y="0" type="line"/>
      <point x="82" y="0" type="line"/>
      <point x="82" y="139" type="line"/>
      <point x="524" y="833" type="line"/>
      <point x="104" y="1354" type="line"/>
      <point x="104" y="1496" type="line"/>
      <point x="960" y="1496" type="line"/>
      <point x="960" y="1343" type="line"/>
      <point x="304" y="1343" type="line"/>
      <point x="721" y="832" type="line"/>
      <point x="287" y="161" type="line"/>
    </contour>
  </outline>
</glyph>
<glyph name="lozenge" format="1">
  <advance width="1142"/>
  <unicode hex="25CA"/>
  <outline>
    <contour>
      <point x="630" y="1583" type="line"/>
      <point x="1055" y="768" type="line"/>
      <point x="621" y="-48" type="line"/>
      <point x="512" y="-48" type="line"/>
      <point x="87" y="766" type="line"/>
      <point x="519" y="1583" type="line"/>
    </contour>
    <contour>
      <point x="565" y="106" type="curve"/>
      <point x="683.987" y="326.346"/>
      <point x="803.688" y="545.979"/>
      <point x="923" y="766" type="curve"/>
      <point x="807.811" y="985.477"/>
      <point x="690.208" y="1202.54"/>
      <point x="577" y="1424" type="curve"/>
      <point x="456.632" y="1206.37"/>
      <point x="338.391" y="986.609"/>
      <point x="219" y="768" type="curve"/>
      <point x="334.553" y="547.553"/>
      <point x="445.958" y="322.958"/>
    </contour>
  </outline>
</glyph>
